<?xml version="1.0" encoding="utf-8" standalone="no"?>
<!DOCTYPE svg PUBLIC "-//W3C//DTD SVG 1.1//EN"
  "http://www.w3.org/Graphics/SVG/1.1/DTD/svg11.dtd">
<!-- Created with matplotlib (https://matplotlib.org/) -->
<svg height="345.6pt" version="1.1" viewBox="0 0 460.8 345.6" width="460.8pt" xmlns="http://www.w3.org/2000/svg" xmlns:xlink="http://www.w3.org/1999/xlink">
 <metadata>
  <rdf:RDF xmlns:cc="http://creativecommons.org/ns#" xmlns:dc="http://purl.org/dc/elements/1.1/" xmlns:rdf="http://www.w3.org/1999/02/22-rdf-syntax-ns#">
   <cc:Work>
    <dc:type rdf:resource="http://purl.org/dc/dcmitype/StillImage"/>
    <dc:date>2020-12-10T15:24:03.175397</dc:date>
    <dc:format>image/svg+xml</dc:format>
    <dc:creator>
     <cc:Agent>
      <dc:title>Matplotlib v3.3.1, https://matplotlib.org/</dc:title>
     </cc:Agent>
    </dc:creator>
   </cc:Work>
  </rdf:RDF>
 </metadata>
 <defs>
  <style type="text/css">*{stroke-linecap:butt;stroke-linejoin:round;}</style>
 </defs>
 <g id="figure_1">
  <g id="patch_1">
   <path d="M 0 345.6 
L 460.8 345.6 
L 460.8 0 
L 0 0 
z
" style="fill:#ffffff;"/>
  </g>
  <g id="axes_1">
   <g id="patch_2">
    <path d="M 57.6 307.584 
L 414.72 307.584 
L 414.72 41.472 
L 57.6 41.472 
z
" style="fill:#ffffff;"/>
   </g>
   <g id="matplotlib.axis_1">
    <g id="xtick_1">
     <g id="line2d_1">
      <defs>
       <path d="M 0 0 
L 0 3.5 
" id="me5c08f311b" style="stroke:#000000;stroke-width:0.8;"/>
      </defs>
      <g>
       <use style="stroke:#000000;stroke-width:0.8;" x="73.832727" xlink:href="#me5c08f311b" y="307.584"/>
      </g>
     </g>
     <g id="text_1">
      <!-- 400 -->
      <g transform="translate(64.288977 322.182437)scale(0.1 -0.1)">
       <defs>
        <path d="M 37.796875 64.3125 
L 12.890625 25.390625 
L 37.796875 25.390625 
z
M 35.203125 72.90625 
L 47.609375 72.90625 
L 47.609375 25.390625 
L 58.015625 25.390625 
L 58.015625 17.1875 
L 47.609375 17.1875 
L 47.609375 0 
L 37.796875 0 
L 37.796875 17.1875 
L 4.890625 17.1875 
L 4.890625 26.703125 
z
" id="DejaVuSans-52"/>
        <path d="M 31.78125 66.40625 
Q 24.171875 66.40625 20.328125 58.90625 
Q 16.5 51.421875 16.5 36.375 
Q 16.5 21.390625 20.328125 13.890625 
Q 24.171875 6.390625 31.78125 6.390625 
Q 39.453125 6.390625 43.28125 13.890625 
Q 47.125 21.390625 47.125 36.375 
Q 47.125 51.421875 43.28125 58.90625 
Q 39.453125 66.40625 31.78125 66.40625 
z
M 31.78125 74.21875 
Q 44.046875 74.21875 50.515625 64.515625 
Q 56.984375 54.828125 56.984375 36.375 
Q 56.984375 17.96875 50.515625 8.265625 
Q 44.046875 -1.421875 31.78125 -1.421875 
Q 19.53125 -1.421875 13.0625 8.265625 
Q 6.59375 17.96875 6.59375 36.375 
Q 6.59375 54.828125 13.0625 64.515625 
Q 19.53125 74.21875 31.78125 74.21875 
z
" id="DejaVuSans-48"/>
       </defs>
       <use xlink:href="#DejaVuSans-52"/>
       <use x="63.623047" xlink:href="#DejaVuSans-48"/>
       <use x="127.246094" xlink:href="#DejaVuSans-48"/>
      </g>
     </g>
    </g>
    <g id="xtick_2">
     <g id="line2d_2">
      <g>
       <use style="stroke:#000000;stroke-width:0.8;" x="127.941818" xlink:href="#me5c08f311b" y="307.584"/>
      </g>
     </g>
     <g id="text_2">
      <!-- 450 -->
      <g transform="translate(118.398068 322.182437)scale(0.1 -0.1)">
       <defs>
        <path d="M 10.796875 72.90625 
L 49.515625 72.90625 
L 49.515625 64.59375 
L 19.828125 64.59375 
L 19.828125 46.734375 
Q 21.96875 47.46875 24.109375 47.828125 
Q 26.265625 48.1875 28.421875 48.1875 
Q 40.625 48.1875 47.75 41.5 
Q 54.890625 34.8125 54.890625 23.390625 
Q 54.890625 11.625 47.5625 5.09375 
Q 40.234375 -1.421875 26.90625 -1.421875 
Q 22.3125 -1.421875 17.546875 -0.640625 
Q 12.796875 0.140625 7.71875 1.703125 
L 7.71875 11.625 
Q 12.109375 9.234375 16.796875 8.0625 
Q 21.484375 6.890625 26.703125 6.890625 
Q 35.15625 6.890625 40.078125 11.328125 
Q 45.015625 15.765625 45.015625 23.390625 
Q 45.015625 31 40.078125 35.4375 
Q 35.15625 39.890625 26.703125 39.890625 
Q 22.75 39.890625 18.8125 39.015625 
Q 14.890625 38.140625 10.796875 36.28125 
z
" id="DejaVuSans-53"/>
       </defs>
       <use xlink:href="#DejaVuSans-52"/>
       <use x="63.623047" xlink:href="#DejaVuSans-53"/>
       <use x="127.246094" xlink:href="#DejaVuSans-48"/>
      </g>
     </g>
    </g>
    <g id="xtick_3">
     <g id="line2d_3">
      <g>
       <use style="stroke:#000000;stroke-width:0.8;" x="182.050909" xlink:href="#me5c08f311b" y="307.584"/>
      </g>
     </g>
     <g id="text_3">
      <!-- 500 -->
      <g transform="translate(172.507159 322.182437)scale(0.1 -0.1)">
       <use xlink:href="#DejaVuSans-53"/>
       <use x="63.623047" xlink:href="#DejaVuSans-48"/>
       <use x="127.246094" xlink:href="#DejaVuSans-48"/>
      </g>
     </g>
    </g>
    <g id="xtick_4">
     <g id="line2d_4">
      <g>
       <use style="stroke:#000000;stroke-width:0.8;" x="236.16" xlink:href="#me5c08f311b" y="307.584"/>
      </g>
     </g>
     <g id="text_4">
      <!-- 550 -->
      <g transform="translate(226.61625 322.182437)scale(0.1 -0.1)">
       <use xlink:href="#DejaVuSans-53"/>
       <use x="63.623047" xlink:href="#DejaVuSans-53"/>
       <use x="127.246094" xlink:href="#DejaVuSans-48"/>
      </g>
     </g>
    </g>
    <g id="xtick_5">
     <g id="line2d_5">
      <g>
       <use style="stroke:#000000;stroke-width:0.8;" x="290.269091" xlink:href="#me5c08f311b" y="307.584"/>
      </g>
     </g>
     <g id="text_5">
      <!-- 600 -->
      <g transform="translate(280.725341 322.182437)scale(0.1 -0.1)">
       <defs>
        <path d="M 33.015625 40.375 
Q 26.375 40.375 22.484375 35.828125 
Q 18.609375 31.296875 18.609375 23.390625 
Q 18.609375 15.53125 22.484375 10.953125 
Q 26.375 6.390625 33.015625 6.390625 
Q 39.65625 6.390625 43.53125 10.953125 
Q 47.40625 15.53125 47.40625 23.390625 
Q 47.40625 31.296875 43.53125 35.828125 
Q 39.65625 40.375 33.015625 40.375 
z
M 52.59375 71.296875 
L 52.59375 62.3125 
Q 48.875 64.0625 45.09375 64.984375 
Q 41.3125 65.921875 37.59375 65.921875 
Q 27.828125 65.921875 22.671875 59.328125 
Q 17.53125 52.734375 16.796875 39.40625 
Q 19.671875 43.65625 24.015625 45.921875 
Q 28.375 48.1875 33.59375 48.1875 
Q 44.578125 48.1875 50.953125 41.515625 
Q 57.328125 34.859375 57.328125 23.390625 
Q 57.328125 12.15625 50.6875 5.359375 
Q 44.046875 -1.421875 33.015625 -1.421875 
Q 20.359375 -1.421875 13.671875 8.265625 
Q 6.984375 17.96875 6.984375 36.375 
Q 6.984375 53.65625 15.1875 63.9375 
Q 23.390625 74.21875 37.203125 74.21875 
Q 40.921875 74.21875 44.703125 73.484375 
Q 48.484375 72.75 52.59375 71.296875 
z
" id="DejaVuSans-54"/>
       </defs>
       <use xlink:href="#DejaVuSans-54"/>
       <use x="63.623047" xlink:href="#DejaVuSans-48"/>
       <use x="127.246094" xlink:href="#DejaVuSans-48"/>
      </g>
     </g>
    </g>
    <g id="xtick_6">
     <g id="line2d_6">
      <g>
       <use style="stroke:#000000;stroke-width:0.8;" x="344.378182" xlink:href="#me5c08f311b" y="307.584"/>
      </g>
     </g>
     <g id="text_6">
      <!-- 650 -->
      <g transform="translate(334.834432 322.182437)scale(0.1 -0.1)">
       <use xlink:href="#DejaVuSans-54"/>
       <use x="63.623047" xlink:href="#DejaVuSans-53"/>
       <use x="127.246094" xlink:href="#DejaVuSans-48"/>
      </g>
     </g>
    </g>
    <g id="xtick_7">
     <g id="line2d_7">
      <g>
       <use style="stroke:#000000;stroke-width:0.8;" x="398.487273" xlink:href="#me5c08f311b" y="307.584"/>
      </g>
     </g>
     <g id="text_7">
      <!-- 700 -->
      <g transform="translate(388.943523 322.182437)scale(0.1 -0.1)">
       <defs>
        <path d="M 8.203125 72.90625 
L 55.078125 72.90625 
L 55.078125 68.703125 
L 28.609375 0 
L 18.3125 0 
L 43.21875 64.59375 
L 8.203125 64.59375 
z
" id="DejaVuSans-55"/>
       </defs>
       <use xlink:href="#DejaVuSans-55"/>
       <use x="63.623047" xlink:href="#DejaVuSans-48"/>
       <use x="127.246094" xlink:href="#DejaVuSans-48"/>
      </g>
     </g>
    </g>
    <g id="text_8">
     <!-- Wavelength (nm) -->
     <g transform="translate(192.967812 335.860562)scale(0.1 -0.1)">
      <defs>
       <path d="M 3.328125 72.90625 
L 13.28125 72.90625 
L 28.609375 11.28125 
L 43.890625 72.90625 
L 54.984375 72.90625 
L 70.3125 11.28125 
L 85.59375 72.90625 
L 95.609375 72.90625 
L 77.296875 0 
L 64.890625 0 
L 49.515625 63.28125 
L 33.984375 0 
L 21.578125 0 
z
" id="DejaVuSans-87"/>
       <path d="M 34.28125 27.484375 
Q 23.390625 27.484375 19.1875 25 
Q 14.984375 22.515625 14.984375 16.5 
Q 14.984375 11.71875 18.140625 8.90625 
Q 21.296875 6.109375 26.703125 6.109375 
Q 34.1875 6.109375 38.703125 11.40625 
Q 43.21875 16.703125 43.21875 25.484375 
L 43.21875 27.484375 
z
M 52.203125 31.203125 
L 52.203125 0 
L 43.21875 0 
L 43.21875 8.296875 
Q 40.140625 3.328125 35.546875 0.953125 
Q 30.953125 -1.421875 24.3125 -1.421875 
Q 15.921875 -1.421875 10.953125 3.296875 
Q 6 8.015625 6 15.921875 
Q 6 25.140625 12.171875 29.828125 
Q 18.359375 34.515625 30.609375 34.515625 
L 43.21875 34.515625 
L 43.21875 35.40625 
Q 43.21875 41.609375 39.140625 45 
Q 35.0625 48.390625 27.6875 48.390625 
Q 23 48.390625 18.546875 47.265625 
Q 14.109375 46.140625 10.015625 43.890625 
L 10.015625 52.203125 
Q 14.9375 54.109375 19.578125 55.046875 
Q 24.21875 56 28.609375 56 
Q 40.484375 56 46.34375 49.84375 
Q 52.203125 43.703125 52.203125 31.203125 
z
" id="DejaVuSans-97"/>
       <path d="M 2.984375 54.6875 
L 12.5 54.6875 
L 29.59375 8.796875 
L 46.6875 54.6875 
L 56.203125 54.6875 
L 35.6875 0 
L 23.484375 0 
z
" id="DejaVuSans-118"/>
       <path d="M 56.203125 29.59375 
L 56.203125 25.203125 
L 14.890625 25.203125 
Q 15.484375 15.921875 20.484375 11.0625 
Q 25.484375 6.203125 34.421875 6.203125 
Q 39.59375 6.203125 44.453125 7.46875 
Q 49.3125 8.734375 54.109375 11.28125 
L 54.109375 2.78125 
Q 49.265625 0.734375 44.1875 -0.34375 
Q 39.109375 -1.421875 33.890625 -1.421875 
Q 20.796875 -1.421875 13.15625 6.1875 
Q 5.515625 13.8125 5.515625 26.8125 
Q 5.515625 40.234375 12.765625 48.109375 
Q 20.015625 56 32.328125 56 
Q 43.359375 56 49.78125 48.890625 
Q 56.203125 41.796875 56.203125 29.59375 
z
M 47.21875 32.234375 
Q 47.125 39.59375 43.09375 43.984375 
Q 39.0625 48.390625 32.421875 48.390625 
Q 24.90625 48.390625 20.390625 44.140625 
Q 15.875 39.890625 15.1875 32.171875 
z
" id="DejaVuSans-101"/>
       <path d="M 9.421875 75.984375 
L 18.40625 75.984375 
L 18.40625 0 
L 9.421875 0 
z
" id="DejaVuSans-108"/>
       <path d="M 54.890625 33.015625 
L 54.890625 0 
L 45.90625 0 
L 45.90625 32.71875 
Q 45.90625 40.484375 42.875 44.328125 
Q 39.84375 48.1875 33.796875 48.1875 
Q 26.515625 48.1875 22.3125 43.546875 
Q 18.109375 38.921875 18.109375 30.90625 
L 18.109375 0 
L 9.078125 0 
L 9.078125 54.6875 
L 18.109375 54.6875 
L 18.109375 46.1875 
Q 21.34375 51.125 25.703125 53.5625 
Q 30.078125 56 35.796875 56 
Q 45.21875 56 50.046875 50.171875 
Q 54.890625 44.34375 54.890625 33.015625 
z
" id="DejaVuSans-110"/>
       <path d="M 45.40625 27.984375 
Q 45.40625 37.75 41.375 43.109375 
Q 37.359375 48.484375 30.078125 48.484375 
Q 22.859375 48.484375 18.828125 43.109375 
Q 14.796875 37.75 14.796875 27.984375 
Q 14.796875 18.265625 18.828125 12.890625 
Q 22.859375 7.515625 30.078125 7.515625 
Q 37.359375 7.515625 41.375 12.890625 
Q 45.40625 18.265625 45.40625 27.984375 
z
M 54.390625 6.78125 
Q 54.390625 -7.171875 48.1875 -13.984375 
Q 42 -20.796875 29.203125 -20.796875 
Q 24.46875 -20.796875 20.265625 -20.09375 
Q 16.0625 -19.390625 12.109375 -17.921875 
L 12.109375 -9.1875 
Q 16.0625 -11.328125 19.921875 -12.34375 
Q 23.78125 -13.375 27.78125 -13.375 
Q 36.625 -13.375 41.015625 -8.765625 
Q 45.40625 -4.15625 45.40625 5.171875 
L 45.40625 9.625 
Q 42.625 4.78125 38.28125 2.390625 
Q 33.9375 0 27.875 0 
Q 17.828125 0 11.671875 7.65625 
Q 5.515625 15.328125 5.515625 27.984375 
Q 5.515625 40.671875 11.671875 48.328125 
Q 17.828125 56 27.875 56 
Q 33.9375 56 38.28125 53.609375 
Q 42.625 51.21875 45.40625 46.390625 
L 45.40625 54.6875 
L 54.390625 54.6875 
z
" id="DejaVuSans-103"/>
       <path d="M 18.3125 70.21875 
L 18.3125 54.6875 
L 36.8125 54.6875 
L 36.8125 47.703125 
L 18.3125 47.703125 
L 18.3125 18.015625 
Q 18.3125 11.328125 20.140625 9.421875 
Q 21.96875 7.515625 27.59375 7.515625 
L 36.8125 7.515625 
L 36.8125 0 
L 27.59375 0 
Q 17.1875 0 13.234375 3.875 
Q 9.28125 7.765625 9.28125 18.015625 
L 9.28125 47.703125 
L 2.6875 47.703125 
L 2.6875 54.6875 
L 9.28125 54.6875 
L 9.28125 70.21875 
z
" id="DejaVuSans-116"/>
       <path d="M 54.890625 33.015625 
L 54.890625 0 
L 45.90625 0 
L 45.90625 32.71875 
Q 45.90625 40.484375 42.875 44.328125 
Q 39.84375 48.1875 33.796875 48.1875 
Q 26.515625 48.1875 22.3125 43.546875 
Q 18.109375 38.921875 18.109375 30.90625 
L 18.109375 0 
L 9.078125 0 
L 9.078125 75.984375 
L 18.109375 75.984375 
L 18.109375 46.1875 
Q 21.34375 51.125 25.703125 53.5625 
Q 30.078125 56 35.796875 56 
Q 45.21875 56 50.046875 50.171875 
Q 54.890625 44.34375 54.890625 33.015625 
z
" id="DejaVuSans-104"/>
       <path id="DejaVuSans-32"/>
       <path d="M 31 75.875 
Q 24.46875 64.65625 21.28125 53.65625 
Q 18.109375 42.671875 18.109375 31.390625 
Q 18.109375 20.125 21.3125 9.0625 
Q 24.515625 -2 31 -13.1875 
L 23.1875 -13.1875 
Q 15.875 -1.703125 12.234375 9.375 
Q 8.59375 20.453125 8.59375 31.390625 
Q 8.59375 42.28125 12.203125 53.3125 
Q 15.828125 64.359375 23.1875 75.875 
z
" id="DejaVuSans-40"/>
       <path d="M 52 44.1875 
Q 55.375 50.25 60.0625 53.125 
Q 64.75 56 71.09375 56 
Q 79.640625 56 84.28125 50.015625 
Q 88.921875 44.046875 88.921875 33.015625 
L 88.921875 0 
L 79.890625 0 
L 79.890625 32.71875 
Q 79.890625 40.578125 77.09375 44.375 
Q 74.3125 48.1875 68.609375 48.1875 
Q 61.625 48.1875 57.5625 43.546875 
Q 53.515625 38.921875 53.515625 30.90625 
L 53.515625 0 
L 44.484375 0 
L 44.484375 32.71875 
Q 44.484375 40.625 41.703125 44.40625 
Q 38.921875 48.1875 33.109375 48.1875 
Q 26.21875 48.1875 22.15625 43.53125 
Q 18.109375 38.875 18.109375 30.90625 
L 18.109375 0 
L 9.078125 0 
L 9.078125 54.6875 
L 18.109375 54.6875 
L 18.109375 46.1875 
Q 21.1875 51.21875 25.484375 53.609375 
Q 29.78125 56 35.6875 56 
Q 41.65625 56 45.828125 52.96875 
Q 50 49.953125 52 44.1875 
z
" id="DejaVuSans-109"/>
       <path d="M 8.015625 75.875 
L 15.828125 75.875 
Q 23.140625 64.359375 26.78125 53.3125 
Q 30.421875 42.28125 30.421875 31.390625 
Q 30.421875 20.453125 26.78125 9.375 
Q 23.140625 -1.703125 15.828125 -13.1875 
L 8.015625 -13.1875 
Q 14.5 -2 17.703125 9.0625 
Q 20.90625 20.125 20.90625 31.390625 
Q 20.90625 42.671875 17.703125 53.65625 
Q 14.5 64.65625 8.015625 75.875 
z
" id="DejaVuSans-41"/>
      </defs>
      <use xlink:href="#DejaVuSans-87"/>
      <use x="92.501953" xlink:href="#DejaVuSans-97"/>
      <use x="153.78125" xlink:href="#DejaVuSans-118"/>
      <use x="212.960938" xlink:href="#DejaVuSans-101"/>
      <use x="274.484375" xlink:href="#DejaVuSans-108"/>
      <use x="302.267578" xlink:href="#DejaVuSans-101"/>
      <use x="363.791016" xlink:href="#DejaVuSans-110"/>
      <use x="427.169922" xlink:href="#DejaVuSans-103"/>
      <use x="490.646484" xlink:href="#DejaVuSans-116"/>
      <use x="529.855469" xlink:href="#DejaVuSans-104"/>
      <use x="593.234375" xlink:href="#DejaVuSans-32"/>
      <use x="625.021484" xlink:href="#DejaVuSans-40"/>
      <use x="664.035156" xlink:href="#DejaVuSans-110"/>
      <use x="727.414062" xlink:href="#DejaVuSans-109"/>
      <use x="824.826172" xlink:href="#DejaVuSans-41"/>
     </g>
    </g>
   </g>
   <g id="matplotlib.axis_2">
    <g id="ytick_1">
     <g id="line2d_8">
      <defs>
       <path d="M 0 0 
L -3.5 0 
" id="me1e8bfd954" style="stroke:#000000;stroke-width:0.8;"/>
      </defs>
      <g>
       <use style="stroke:#000000;stroke-width:0.8;" x="57.6" xlink:href="#me1e8bfd954" y="295.488"/>
      </g>
     </g>
     <g id="text_9">
      <!-- 0.0 -->
      <g transform="translate(34.696875 299.287219)scale(0.1 -0.1)">
       <defs>
        <path d="M 10.6875 12.40625 
L 21 12.40625 
L 21 0 
L 10.6875 0 
z
" id="DejaVuSans-46"/>
       </defs>
       <use xlink:href="#DejaVuSans-48"/>
       <use x="63.623047" xlink:href="#DejaVuSans-46"/>
       <use x="95.410156" xlink:href="#DejaVuSans-48"/>
      </g>
     </g>
    </g>
    <g id="ytick_2">
     <g id="line2d_9">
      <g>
       <use style="stroke:#000000;stroke-width:0.8;" x="57.6" xlink:href="#me1e8bfd954" y="254.109143"/>
      </g>
     </g>
     <g id="text_10">
      <!-- 0.2 -->
      <g transform="translate(34.696875 257.908362)scale(0.1 -0.1)">
       <defs>
        <path d="M 19.1875 8.296875 
L 53.609375 8.296875 
L 53.609375 0 
L 7.328125 0 
L 7.328125 8.296875 
Q 12.9375 14.109375 22.625 23.890625 
Q 32.328125 33.6875 34.8125 36.53125 
Q 39.546875 41.84375 41.421875 45.53125 
Q 43.3125 49.21875 43.3125 52.78125 
Q 43.3125 58.59375 39.234375 62.25 
Q 35.15625 65.921875 28.609375 65.921875 
Q 23.96875 65.921875 18.8125 64.3125 
Q 13.671875 62.703125 7.8125 59.421875 
L 7.8125 69.390625 
Q 13.765625 71.78125 18.9375 73 
Q 24.125 74.21875 28.421875 74.21875 
Q 39.75 74.21875 46.484375 68.546875 
Q 53.21875 62.890625 53.21875 53.421875 
Q 53.21875 48.921875 51.53125 44.890625 
Q 49.859375 40.875 45.40625 35.40625 
Q 44.1875 33.984375 37.640625 27.21875 
Q 31.109375 20.453125 19.1875 8.296875 
z
" id="DejaVuSans-50"/>
       </defs>
       <use xlink:href="#DejaVuSans-48"/>
       <use x="63.623047" xlink:href="#DejaVuSans-46"/>
       <use x="95.410156" xlink:href="#DejaVuSans-50"/>
      </g>
     </g>
    </g>
    <g id="ytick_3">
     <g id="line2d_10">
      <g>
       <use style="stroke:#000000;stroke-width:0.8;" x="57.6" xlink:href="#me1e8bfd954" y="212.730286"/>
      </g>
     </g>
     <g id="text_11">
      <!-- 0.4 -->
      <g transform="translate(34.696875 216.529505)scale(0.1 -0.1)">
       <use xlink:href="#DejaVuSans-48"/>
       <use x="63.623047" xlink:href="#DejaVuSans-46"/>
       <use x="95.410156" xlink:href="#DejaVuSans-52"/>
      </g>
     </g>
    </g>
    <g id="ytick_4">
     <g id="line2d_11">
      <g>
       <use style="stroke:#000000;stroke-width:0.8;" x="57.6" xlink:href="#me1e8bfd954" y="171.351429"/>
      </g>
     </g>
     <g id="text_12">
      <!-- 0.6 -->
      <g transform="translate(34.696875 175.150647)scale(0.1 -0.1)">
       <use xlink:href="#DejaVuSans-48"/>
       <use x="63.623047" xlink:href="#DejaVuSans-46"/>
       <use x="95.410156" xlink:href="#DejaVuSans-54"/>
      </g>
     </g>
    </g>
    <g id="ytick_5">
     <g id="line2d_12">
      <g>
       <use style="stroke:#000000;stroke-width:0.8;" x="57.6" xlink:href="#me1e8bfd954" y="129.972572"/>
      </g>
     </g>
     <g id="text_13">
      <!-- 0.8 -->
      <g transform="translate(34.696875 133.77179)scale(0.1 -0.1)">
       <defs>
        <path d="M 31.78125 34.625 
Q 24.75 34.625 20.71875 30.859375 
Q 16.703125 27.09375 16.703125 20.515625 
Q 16.703125 13.921875 20.71875 10.15625 
Q 24.75 6.390625 31.78125 6.390625 
Q 38.8125 6.390625 42.859375 10.171875 
Q 46.921875 13.96875 46.921875 20.515625 
Q 46.921875 27.09375 42.890625 30.859375 
Q 38.875 34.625 31.78125 34.625 
z
M 21.921875 38.8125 
Q 15.578125 40.375 12.03125 44.71875 
Q 8.5 49.078125 8.5 55.328125 
Q 8.5 64.0625 14.71875 69.140625 
Q 20.953125 74.21875 31.78125 74.21875 
Q 42.671875 74.21875 48.875 69.140625 
Q 55.078125 64.0625 55.078125 55.328125 
Q 55.078125 49.078125 51.53125 44.71875 
Q 48 40.375 41.703125 38.8125 
Q 48.828125 37.15625 52.796875 32.3125 
Q 56.78125 27.484375 56.78125 20.515625 
Q 56.78125 9.90625 50.3125 4.234375 
Q 43.84375 -1.421875 31.78125 -1.421875 
Q 19.734375 -1.421875 13.25 4.234375 
Q 6.78125 9.90625 6.78125 20.515625 
Q 6.78125 27.484375 10.78125 32.3125 
Q 14.796875 37.15625 21.921875 38.8125 
z
M 18.3125 54.390625 
Q 18.3125 48.734375 21.84375 45.5625 
Q 25.390625 42.390625 31.78125 42.390625 
Q 38.140625 42.390625 41.71875 45.5625 
Q 45.3125 48.734375 45.3125 54.390625 
Q 45.3125 60.0625 41.71875 63.234375 
Q 38.140625 66.40625 31.78125 66.40625 
Q 25.390625 66.40625 21.84375 63.234375 
Q 18.3125 60.0625 18.3125 54.390625 
z
" id="DejaVuSans-56"/>
       </defs>
       <use xlink:href="#DejaVuSans-48"/>
       <use x="63.623047" xlink:href="#DejaVuSans-46"/>
       <use x="95.410156" xlink:href="#DejaVuSans-56"/>
      </g>
     </g>
    </g>
    <g id="ytick_6">
     <g id="line2d_13">
      <g>
       <use style="stroke:#000000;stroke-width:0.8;" x="57.6" xlink:href="#me1e8bfd954" y="88.593714"/>
      </g>
     </g>
     <g id="text_14">
      <!-- 1.0 -->
      <g transform="translate(34.696875 92.392933)scale(0.1 -0.1)">
       <defs>
        <path d="M 12.40625 8.296875 
L 28.515625 8.296875 
L 28.515625 63.921875 
L 10.984375 60.40625 
L 10.984375 69.390625 
L 28.421875 72.90625 
L 38.28125 72.90625 
L 38.28125 8.296875 
L 54.390625 8.296875 
L 54.390625 0 
L 12.40625 0 
z
" id="DejaVuSans-49"/>
       </defs>
       <use xlink:href="#DejaVuSans-49"/>
       <use x="63.623047" xlink:href="#DejaVuSans-46"/>
       <use x="95.410156" xlink:href="#DejaVuSans-48"/>
      </g>
     </g>
    </g>
    <g id="ytick_7">
     <g id="line2d_14">
      <g>
       <use style="stroke:#000000;stroke-width:0.8;" x="57.6" xlink:href="#me1e8bfd954" y="47.214857"/>
      </g>
     </g>
     <g id="text_15">
      <!-- 1.2 -->
      <g transform="translate(34.696875 51.014076)scale(0.1 -0.1)">
       <use xlink:href="#DejaVuSans-49"/>
       <use x="63.623047" xlink:href="#DejaVuSans-46"/>
       <use x="95.410156" xlink:href="#DejaVuSans-50"/>
      </g>
     </g>
    </g>
    <g id="text_16">
     <!-- Intensity (AU) -->
     <g transform="translate(28.617187 208.860813)rotate(-90)scale(0.1 -0.1)">
      <defs>
       <path d="M 9.8125 72.90625 
L 19.671875 72.90625 
L 19.671875 0 
L 9.8125 0 
z
" id="DejaVuSans-73"/>
       <path d="M 44.28125 53.078125 
L 44.28125 44.578125 
Q 40.484375 46.53125 36.375 47.5 
Q 32.28125 48.484375 27.875 48.484375 
Q 21.1875 48.484375 17.84375 46.4375 
Q 14.5 44.390625 14.5 40.28125 
Q 14.5 37.15625 16.890625 35.375 
Q 19.28125 33.59375 26.515625 31.984375 
L 29.59375 31.296875 
Q 39.15625 29.25 43.1875 25.515625 
Q 47.21875 21.78125 47.21875 15.09375 
Q 47.21875 7.46875 41.1875 3.015625 
Q 35.15625 -1.421875 24.609375 -1.421875 
Q 20.21875 -1.421875 15.453125 -0.5625 
Q 10.6875 0.296875 5.421875 2 
L 5.421875 11.28125 
Q 10.40625 8.6875 15.234375 7.390625 
Q 20.0625 6.109375 24.8125 6.109375 
Q 31.15625 6.109375 34.5625 8.28125 
Q 37.984375 10.453125 37.984375 14.40625 
Q 37.984375 18.0625 35.515625 20.015625 
Q 33.0625 21.96875 24.703125 23.78125 
L 21.578125 24.515625 
Q 13.234375 26.265625 9.515625 29.90625 
Q 5.8125 33.546875 5.8125 39.890625 
Q 5.8125 47.609375 11.28125 51.796875 
Q 16.75 56 26.8125 56 
Q 31.78125 56 36.171875 55.265625 
Q 40.578125 54.546875 44.28125 53.078125 
z
" id="DejaVuSans-115"/>
       <path d="M 9.421875 54.6875 
L 18.40625 54.6875 
L 18.40625 0 
L 9.421875 0 
z
M 9.421875 75.984375 
L 18.40625 75.984375 
L 18.40625 64.59375 
L 9.421875 64.59375 
z
" id="DejaVuSans-105"/>
       <path d="M 32.171875 -5.078125 
Q 28.375 -14.84375 24.75 -17.8125 
Q 21.140625 -20.796875 15.09375 -20.796875 
L 7.90625 -20.796875 
L 7.90625 -13.28125 
L 13.1875 -13.28125 
Q 16.890625 -13.28125 18.9375 -11.515625 
Q 21 -9.765625 23.484375 -3.21875 
L 25.09375 0.875 
L 2.984375 54.6875 
L 12.5 54.6875 
L 29.59375 11.921875 
L 46.6875 54.6875 
L 56.203125 54.6875 
z
" id="DejaVuSans-121"/>
       <path d="M 34.1875 63.1875 
L 20.796875 26.90625 
L 47.609375 26.90625 
z
M 28.609375 72.90625 
L 39.796875 72.90625 
L 67.578125 0 
L 57.328125 0 
L 50.6875 18.703125 
L 17.828125 18.703125 
L 11.1875 0 
L 0.78125 0 
z
" id="DejaVuSans-65"/>
       <path d="M 8.6875 72.90625 
L 18.609375 72.90625 
L 18.609375 28.609375 
Q 18.609375 16.890625 22.84375 11.734375 
Q 27.09375 6.59375 36.625 6.59375 
Q 46.09375 6.59375 50.34375 11.734375 
Q 54.59375 16.890625 54.59375 28.609375 
L 54.59375 72.90625 
L 64.5 72.90625 
L 64.5 27.390625 
Q 64.5 13.140625 57.4375 5.859375 
Q 50.390625 -1.421875 36.625 -1.421875 
Q 22.796875 -1.421875 15.734375 5.859375 
Q 8.6875 13.140625 8.6875 27.390625 
z
" id="DejaVuSans-85"/>
      </defs>
      <use xlink:href="#DejaVuSans-73"/>
      <use x="29.492188" xlink:href="#DejaVuSans-110"/>
      <use x="92.871094" xlink:href="#DejaVuSans-116"/>
      <use x="132.080078" xlink:href="#DejaVuSans-101"/>
      <use x="193.603516" xlink:href="#DejaVuSans-110"/>
      <use x="256.982422" xlink:href="#DejaVuSans-115"/>
      <use x="309.082031" xlink:href="#DejaVuSans-105"/>
      <use x="336.865234" xlink:href="#DejaVuSans-116"/>
      <use x="376.074219" xlink:href="#DejaVuSans-121"/>
      <use x="435.253906" xlink:href="#DejaVuSans-32"/>
      <use x="467.041016" xlink:href="#DejaVuSans-40"/>
      <use x="506.054688" xlink:href="#DejaVuSans-65"/>
      <use x="574.462891" xlink:href="#DejaVuSans-85"/>
      <use x="647.65625" xlink:href="#DejaVuSans-41"/>
     </g>
    </g>
   </g>
   <g id="line2d_15">
    <path clip-path="url(#p2fae7307fc)" d="M 73.832727 295.488 
L 188.5505 295.391486 
L 190.825356 295.144552 
L 192.125274 294.815618 
L 193.100213 294.40324 
L 194.075152 293.775869 
L 195.05009 292.84421 
L 196.025029 291.494047 
L 196.999967 289.585103 
L 197.974906 286.9528 
L 198.949844 283.414077 
L 199.924783 278.778272 
L 200.899722 272.863627 
L 201.87466 265.519159 
L 202.849599 256.650649 
L 204.149517 242.453737 
L 205.774414 221.373044 
L 210.324128 158.623291 
L 211.299066 148.79195 
L 211.949025 143.706932 
L 212.598984 139.967209 
L 213.248943 137.679279 
L 213.573923 137.102062 
L 213.898903 136.909191 
L 214.223882 137.102062 
L 214.548862 137.679279 
L 214.873841 138.636651 
L 215.5238 141.661348 
L 216.173759 146.089386 
L 217.148698 155.080323 
L 218.123636 166.389441 
L 219.748534 188.583189 
L 222.998329 234.412427 
L 224.298247 249.882496 
L 225.598165 262.734813 
L 226.573104 270.580426 
L 227.548043 276.957143 
L 228.522981 282.000054 
L 229.49792 285.883332 
L 230.472858 288.796783 
L 231.447797 290.927483 
L 232.422735 292.44705 
L 233.397674 293.504232 
L 234.372613 294.221928 
L 235.347551 294.697481 
L 236.647469 295.080258 
L 238.272367 295.31927 
L 240.872203 295.451766 
L 248.021753 295.487764 
L 284.744439 295.384932 
L 286.369337 295.187558 
L 287.669255 294.826731 
L 288.644193 294.338863 
L 289.619132 293.556828 
L 290.269091 292.808586 
L 290.91905 291.82536 
L 291.569009 290.555302 
L 292.218968 288.942988 
L 293.193907 285.759875 
L 294.168845 281.504883 
L 295.143784 276.050707 
L 296.118722 269.358813 
L 297.41864 258.689534 
L 301.643374 221.216251 
L 302.618313 215.575343 
L 303.268272 213.105858 
L 303.918231 211.790492 
L 304.24321 211.582151 
L 304.56819 211.675189 
L 304.89317 212.066454 
L 305.218149 212.749226 
L 305.868108 214.94492 
L 306.518067 218.141264 
L 307.493006 224.43671 
L 309.117903 237.133914 
L 310.742801 249.471429 
L 311.71774 255.387081 
L 312.367699 258.4092 
L 313.017658 260.593962 
L 313.667617 261.902487 
L 313.992596 262.227126 
L 314.317576 262.336287 
L 314.642555 262.236014 
L 314.967535 261.934448 
L 315.617494 260.769697 
L 316.267453 258.943651 
L 317.242391 255.243535 
L 319.192269 246.246666 
L 320.492187 240.77135 
L 321.467125 237.748799 
L 322.117084 236.453997 
L 322.767043 235.821107 
L 323.092023 235.766699 
L 323.417002 235.890536 
L 323.741982 236.192882 
L 324.391941 237.324898 
L 325.0419 239.128623 
L 325.691859 241.544077 
L 326.666798 246.131335 
L 327.966716 253.508035 
L 331.541491 274.672054 
L 332.841409 280.795225 
L 333.816347 284.537045 
L 334.791286 287.551239 
L 335.766224 289.89458 
L 336.741163 291.654862 
L 337.716102 292.933686 
L 338.69104 293.832852 
L 339.665979 294.445101 
L 340.965897 294.948649 
L 342.590794 295.267446 
L 344.865651 295.432655 
L 349.740344 295.486288 
L 398.487273 295.488 
L 398.487273 295.488 
" style="fill:none;stroke:#1f77b4;stroke-linecap:square;stroke-width:1.5;"/>
   </g>
   <g id="line2d_16">
    <path clip-path="url(#p2fae7307fc)" d="M 73.832727 249.251524 
L 75.457625 239.688034 
L 77.407502 226.895652 
L 79.682359 210.486651 
L 83.257133 182.856433 
L 90.081704 128.407224 
L 92.35656 107.871952 
L 96.581294 67.977902 
L 97.556233 60.949728 
L 98.206192 57.371836 
L 98.856151 54.891949 
L 99.18113 54.114351 
L 99.50611 53.668209 
L 99.831089 53.568 
L 100.156069 53.825465 
L 100.481048 54.449506 
L 100.806028 55.445822 
L 101.455987 58.561762 
L 102.105946 63.152741 
L 102.755905 69.145384 
L 103.730844 80.483321 
L 105.030762 99.043548 
L 107.305618 136.17055 
L 109.580475 172.048531 
L 111.205373 194.047485 
L 112.505291 209.041412 
L 113.805209 221.864142 
L 115.105127 232.81254 
L 116.405045 242.210078 
L 118.029943 252.197454 
L 119.65484 260.597125 
L 121.279738 267.669265 
L 122.904636 273.585702 
L 124.204554 277.575355 
L 125.504472 280.9699 
L 126.80439 283.828705 
L 128.104308 286.210883 
L 129.404226 288.174663 
L 130.704144 289.776204 
L 132.004062 291.068418 
L 133.30398 292.100028 
L 134.928878 293.089486 
L 136.553776 293.814538 
L 138.503653 294.422214 
L 140.778509 294.874877 
L 143.703325 295.199204 
L 147.603079 295.389655 
L 154.752629 295.477026 
L 185.950663 295.473856 
L 191.800295 295.338248 
L 194.725111 295.058161 
L 196.674988 294.659255 
L 198.299885 294.095842 
L 199.599803 293.418653 
L 200.899722 292.462441 
L 201.87466 291.508508 
L 202.849599 290.302208 
L 203.824537 288.792734 
L 204.799476 286.923816 
L 205.774414 284.634508 
L 206.749353 281.860434 
L 207.724292 278.535549 
L 209.02421 273.132967 
L 210.324128 266.491511 
L 211.624046 258.49302 
L 212.923964 249.061333 
L 214.223882 238.17944 
L 215.84878 222.634933 
L 217.798657 201.574464 
L 224.298247 128.081293 
L 225.598165 116.648401 
L 226.573104 109.590002 
L 227.548043 104.039888 
L 228.198002 101.253121 
L 228.847961 99.237787 
L 229.49792 98.018548 
L 229.822899 97.712558 
L 230.147879 97.610462 
L 230.472858 97.712558 
L 230.797838 98.018548 
L 231.447797 99.237787 
L 232.097756 101.253121 
L 232.747715 104.039888 
L 233.722654 109.590002 
L 234.697592 116.648401 
L 235.99751 128.081293 
L 237.622408 144.88878 
L 240.222244 174.986844 
L 243.472039 212.387175 
L 245.421916 232.209568 
L 247.046814 246.475943 
L 248.346732 256.271266 
L 249.64665 264.622935 
L 250.946568 271.593921 
L 252.246486 277.293478 
L 253.546405 281.860434 
L 254.846323 285.448242 
L 255.821261 287.590405 
L 256.7962 289.332946 
L 257.771138 290.735368 
L 259.071057 292.169607 
L 260.370975 293.208976 
L 261.670893 293.948438 
L 263.29579 294.566764 
L 265.245667 295.007221 
L 267.520524 295.273191 
L 271.095299 295.433319 
L 278.894808 295.486209 
L 318.867289 295.4139 
L 322.767043 295.194701 
L 325.36688 294.823023 
L 327.316757 294.321345 
L 328.941654 293.686368 
L 330.566552 292.79023 
L 331.86647 291.84349 
L 333.166388 290.660669 
L 334.466306 289.218846 
L 336.091204 287.034433 
L 337.716102 284.434842 
L 339.665979 280.847552 
L 345.84059 268.883886 
L 347.140508 266.982384 
L 348.115446 265.853673 
L 349.090385 265.020187 
L 350.065324 264.508887 
L 351.040262 264.336552 
L 351.690221 264.413266 
L 352.66516 264.812907 
L 353.640098 265.541514 
L 354.615037 266.575386 
L 355.914955 268.370646 
L 357.539853 271.143489 
L 359.814709 275.61195 
L 363.389484 282.69626 
L 365.339361 286.042506 
L 366.964259 288.396347 
L 368.589156 290.325196 
L 370.214054 291.84349 
L 371.838952 292.993359 
L 373.463849 293.83226 
L 375.088747 294.422406 
L 377.038624 294.885103 
L 379.313481 295.194701 
L 382.563276 295.393647 
L 388.412907 295.479021 
L 398.487273 295.487939 
L 398.487273 295.487939 
" style="fill:none;stroke:#ff7f0e;stroke-linecap:square;stroke-width:1.5;"/>
   </g>
   <g id="line2d_17">
    <path clip-path="url(#p2fae7307fc)" d="M 73.832727 289.662098 
L 75.132645 288.02336 
L 76.432563 286.01107 
L 77.732482 283.566261 
L 79.0324 280.6278 
L 80.332318 277.134333 
L 81.632236 273.026739 
L 82.932154 268.251045 
L 84.557052 261.27371 
L 86.181949 253.121067 
L 87.806847 243.772944 
L 89.756724 231.026258 
L 91.706601 216.780407 
L 94.306437 196.020318 
L 100.481048 145.787711 
L 102.105946 134.425999 
L 103.730844 124.66982 
L 105.030762 118.280646 
L 106.0057 114.426446 
L 106.980639 111.441187 
L 107.630598 109.95664 
L 108.280557 108.888763 
L 108.930516 108.244818 
L 109.580475 108.029121 
L 110.230434 108.243091 
L 110.880393 108.885076 
L 111.530352 109.950474 
L 112.180311 111.431728 
L 113.15525 114.409601 
L 114.130188 118.25174 
L 115.430106 124.612403 
L 116.730025 132.222776 
L 118.354922 143.166636 
L 120.629779 160.280015 
L 124.854513 192.608709 
L 126.47941 203.276909 
L 127.779328 210.366489 
L 128.754267 214.608248 
L 129.729206 217.775452 
L 130.379165 219.230877 
L 131.029124 220.127637 
L 131.354103 220.359513 
L 131.679083 220.444289 
L 132.004062 220.380564 
L 132.329042 220.167549 
L 132.979001 219.293627 
L 133.62896 217.829453 
L 134.278919 215.793704 
L 135.253857 211.740388 
L 136.228796 206.635454 
L 137.528714 198.594199 
L 141.428468 173.356375 
L 142.403407 168.740596 
L 143.053366 166.407396 
L 143.703325 164.764065 
L 144.353284 163.874284 
L 144.678264 163.727041 
L 145.003243 163.783904 
L 145.328223 164.047596 
L 145.653202 164.519561 
L 146.303161 166.087914 
L 146.95312 168.475609 
L 147.603079 171.649978 
L 148.578018 177.771427 
L 149.552957 185.309857 
L 150.852875 197.047445 
L 153.452711 223.291228 
L 155.727568 245.367533 
L 157.352465 258.894333 
L 158.652383 267.943039 
L 159.952301 275.343837 
L 160.92724 279.856425 
L 161.902179 283.553477 
L 162.877117 286.522775 
L 163.852056 288.861513 
L 164.826994 290.668543 
L 165.801933 292.038472 
L 166.776871 293.057586 
L 167.75181 293.801468 
L 169.051728 294.473935 
L 170.351646 294.889128 
L 171.976544 295.176295 
L 174.2514 295.332302 
L 177.501196 295.304603 
L 180.750991 295.056376 
L 183.025848 294.688848 
L 184.975725 294.166355 
L 186.600622 293.517758 
L 188.22552 292.604659 
L 189.525438 291.629706 
L 190.825356 290.386086 
L 192.125274 288.821342 
L 193.425192 286.879648 
L 194.725111 284.503795 
L 196.025029 281.637869 
L 197.324947 278.230583 
L 198.624865 274.239201 
L 200.249762 268.384732 
L 201.87466 261.553523 
L 203.499558 253.782533 
L 205.449435 243.367836 
L 208.049271 228.187587 
L 212.274005 203.36621 
L 213.898903 194.961467 
L 215.198821 189.12108 
L 216.498739 184.271514 
L 217.473677 181.38354 
L 218.448616 179.20085 
L 219.098575 178.159314 
L 219.748534 177.459764 
L 220.398493 177.108442 
L 221.048452 177.108442 
L 221.698411 177.459764 
L 222.34837 178.159314 
L 222.998329 179.20085 
L 223.973268 181.38354 
L 224.948206 184.271514 
L 225.923145 187.808933 
L 227.223063 193.418437 
L 228.847961 201.60403 
L 231.122817 214.539097 
L 236.972449 248.708931 
L 238.922326 258.553687 
L 240.547224 265.768768 
L 242.172121 272.014524 
L 243.797019 277.288918 
L 245.096937 280.838649 
L 246.396855 283.83537 
L 247.696773 286.328618 
L 248.996691 288.373489 
L 250.296609 290.027146 
L 251.596527 291.345975 
L 252.896446 292.383429 
L 254.521343 293.35875 
L 256.146241 294.054545 
L 258.096118 294.617992 
L 260.370975 295.018283 
L 263.29579 295.286427 
L 267.845504 295.440031 
L 278.244848 295.486957 
L 339.01602 295.407727 
L 341.615856 295.196427 
L 343.240753 294.872825 
L 344.540672 294.406373 
L 345.51561 293.867938 
L 346.490549 293.101154 
L 347.465487 292.028959 
L 348.440426 290.557107 
L 349.415364 288.573925 
L 350.390303 285.951671 
L 351.365242 282.550007 
L 352.34018 278.222019 
L 353.315119 272.82308 
L 354.290057 266.222513 
L 355.264996 258.317713 
L 356.564914 245.655862 
L 357.864832 230.610847 
L 359.48973 208.908296 
L 365.014382 131.534362 
L 365.98932 121.793549 
L 366.964259 114.483481 
L 367.614218 111.136565 
L 368.264177 109.098787 
L 368.589156 108.585831 
L 368.914136 108.414529 
L 369.239115 108.585831 
L 369.564095 109.098787 
L 369.889075 109.950585 
L 370.539034 112.650276 
L 371.188993 116.626327 
L 372.163931 124.790684 
L 373.13887 135.24661 
L 374.438788 151.928448 
L 376.713645 185.118848 
L 379.313481 222.271556 
L 380.938378 242.111676 
L 382.238296 255.381211 
L 383.538215 266.222513 
L 384.513153 272.82308 
L 385.488092 278.222019 
L 386.46303 282.550007 
L 387.437969 285.951671 
L 388.412907 288.573925 
L 389.387846 290.557107 
L 390.362785 292.028959 
L 391.337723 293.101154 
L 392.312662 293.867938 
L 393.61258 294.546107 
L 394.912498 294.95621 
L 396.537396 295.238248 
L 398.487273 295.393076 
L 398.487273 295.393076 
" style="fill:none;stroke:#2ca02c;stroke-linecap:square;stroke-width:1.5;"/>
   </g>
   <g id="line2d_18">
    <path clip-path="url(#p2fae7307fc)" d="M 73.832727 295.488 
L 112.83027 295.389163 
L 115.105127 295.176519 
L 116.730025 294.831275 
L 118.029943 294.347045 
L 119.329861 293.582453 
L 120.304799 292.760037 
L 121.279738 291.668387 
L 122.254676 290.257272 
L 123.229615 288.48205 
L 124.204554 286.310297 
L 125.504472 282.779391 
L 126.80439 278.570792 
L 128.754267 271.358337 
L 131.354103 261.741809 
L 132.654021 257.872052 
L 133.62896 255.723309 
L 134.278919 254.728057 
L 134.928878 254.117266 
L 135.578837 253.908537 
L 136.228796 254.107703 
L 136.878755 254.708532 
L 137.528714 255.693013 
L 138.178673 257.032212 
L 139.153612 259.61972 
L 140.45353 263.892516 
L 145.653202 282.293042 
L 146.95312 285.615598 
L 147.928059 287.581089 
L 148.902998 289.096096 
L 149.877936 290.181107 
L 150.852875 290.866816 
L 151.827813 291.187328 
L 152.802752 291.174689 
L 153.77769 290.854986 
L 154.752629 290.245991 
L 155.727568 289.356138 
L 156.702506 288.18456 
L 157.677445 286.721865 
L 158.977363 284.28912 
L 160.277281 281.253964 
L 161.577199 277.550578 
L 162.877117 273.108954 
L 164.177035 267.861821 
L 165.476953 261.751483 
L 167.101851 252.838677 
L 168.726749 242.484992 
L 170.351646 230.735165 
L 172.301523 214.98749 
L 174.90136 191.925295 
L 180.101032 145.197262 
L 181.72593 132.609244 
L 183.025848 123.911065 
L 184.325766 116.717176 
L 185.300704 112.444901 
L 186.275643 109.221661 
L 186.925602 107.685259 
L 187.575561 106.653946 
L 188.22552 106.136181 
L 188.5505 106.071352 
L 188.875479 106.136181 
L 189.525438 106.653946 
L 190.175397 107.685247 
L 190.825356 109.221649 
L 191.475315 111.250647 
L 192.450254 115.180873 
L 193.425192 120.111076 
L 194.725111 128.087583 
L 196.025029 137.441767 
L 197.649926 150.650546 
L 200.249762 173.92824 
L 204.799476 214.896006 
L 206.749353 230.46649 
L 208.374251 241.865606 
L 209.674169 249.723184 
L 210.974087 256.264884 
L 211.949025 260.17807 
L 212.923964 263.11699 
L 213.573923 264.470347 
L 214.223882 265.287764 
L 214.548862 265.480625 
L 214.873841 265.521268 
L 215.198821 265.403286 
L 215.5238 265.120168 
L 216.173759 264.03239 
L 216.823718 262.206319 
L 217.473677 259.593139 
L 218.123636 256.149643 
L 219.098575 249.355654 
L 220.073514 240.558971 
L 221.048452 229.789557 
L 222.34837 212.631821 
L 223.973268 187.777782 
L 227.223063 136.728529 
L 228.198002 124.224738 
L 229.17294 114.333205 
L 229.822899 109.490545 
L 230.472858 106.211528 
L 230.797838 105.18939 
L 231.122817 104.589889 
L 231.447797 104.417686 
L 231.772776 104.674522 
L 232.097756 105.35915 
L 232.422735 106.467353 
L 233.072695 109.923332 
L 233.722654 114.952585 
L 234.697592 125.150762 
L 235.672531 138.005531 
L 237.297428 163.400901 
L 240.872203 221.711437 
L 242.172121 239.467207 
L 243.472039 254.176083 
L 244.446978 263.094241 
L 245.421916 270.244813 
L 246.396855 275.745142 
L 247.371794 279.755296 
L 248.021753 281.689021 
L 248.671712 283.093537 
L 249.321671 284.020443 
L 249.97163 284.518015 
L 250.621589 284.630353 
L 251.271548 284.396952 
L 251.921507 283.852655 
L 252.571466 283.027884 
L 253.546405 281.321822 
L 254.521343 279.119539 
L 255.821261 275.522262 
L 257.446159 270.159603 
L 259.396036 262.833076 
L 263.945749 245.352473 
L 265.245667 241.252817 
L 266.220606 238.696176 
L 267.195545 236.672684 
L 268.170483 235.246745 
L 268.820442 234.651788 
L 269.470401 234.352112 
L 270.12036 234.352124 
L 270.770319 234.651831 
L 271.420278 235.246837 
L 272.070238 236.128442 
L 273.045176 237.959255 
L 274.020115 240.346678 
L 275.320033 244.265158 
L 276.94493 250.047638 
L 279.869746 261.588897 
L 282.469582 271.455885 
L 284.09448 276.863752 
L 285.719378 281.491272 
L 287.019296 284.594166 
L 288.319214 287.17423 
L 289.619132 289.26674 
L 290.91905 290.9232 
L 292.218968 292.203811 
L 293.518886 293.171151 
L 294.818804 293.885381 
L 296.443702 294.504575 
L 298.393579 294.962435 
L 300.668436 295.248733 
L 303.918231 295.417963 
L 310.417821 295.483849 
L 373.463849 295.488 
L 398.487273 295.488 
L 398.487273 295.488 
" style="fill:none;stroke:#d62728;stroke-linecap:square;stroke-width:1.5;"/>
   </g>
   <g id="line2d_19">
    <path clip-path="url(#p2fae7307fc)" d="M 73.832727 295.488 
L 112.83027 295.388513 
L 116.080066 295.143196 
L 118.029943 294.79884 
L 119.65484 294.29761 
L 120.954758 293.681202 
L 122.254676 292.793873 
L 123.229615 291.894739 
L 124.204554 290.743157 
L 125.179492 289.28478 
L 126.154431 287.458753 
L 127.129369 285.198489 
L 128.104308 282.432999 
L 129.079247 279.088847 
L 130.054185 275.092791 
L 131.354103 268.631073 
L 132.654021 260.744553 
L 133.953939 251.333185 
L 135.253857 240.360064 
L 136.878755 224.527035 
L 138.828632 202.870753 
L 142.078428 163.382243 
L 144.353284 136.923669 
L 145.978182 120.753875 
L 147.2781 110.373654 
L 148.253038 104.425184 
L 148.902998 101.4335 
L 149.552957 99.267939 
L 150.202916 97.957025 
L 150.527895 97.627924 
L 150.852875 97.518109 
L 151.177854 97.627924 
L 151.502834 97.957025 
L 152.152793 99.267939 
L 152.802752 101.4335 
L 153.452711 104.425184 
L 154.427649 110.373654 
L 155.402588 117.919359 
L 156.702506 130.093791 
L 158.327404 147.877062 
L 161.252219 183.329705 
L 163.852056 214.012965 
L 165.801933 234.298523 
L 167.42683 248.736083 
L 168.726749 258.537344 
L 170.026667 266.797813 
L 171.326585 273.603676 
L 172.626503 279.088847 
L 173.926421 283.415474 
L 174.90136 286.004469 
L 175.876298 288.112283 
L 176.851237 289.808623 
L 177.826175 291.158283 
L 178.801114 292.220012 
L 180.101032 293.276802 
L 181.40095 294.018183 
L 182.700868 294.528185 
L 184.325766 294.938461 
L 186.600622 295.247735 
L 189.850418 295.420945 
L 196.350008 295.484253 
L 221.373432 295.41909 
L 226.248124 295.202058 
L 229.17294 294.86716 
L 231.447797 294.398622 
L 233.397674 293.773333 
L 235.022572 293.035182 
L 236.647469 292.042453 
L 238.272367 290.735103 
L 239.572285 289.420135 
L 240.872203 287.830941 
L 242.172121 285.937264 
L 243.472039 283.713015 
L 245.096937 280.43887 
L 246.721835 276.600706 
L 248.346732 272.21055 
L 250.296609 266.284434 
L 252.896446 257.548612 
L 258.096118 239.797201 
L 259.721016 235.05134 
L 261.020934 231.803856 
L 262.320852 229.157858 
L 263.29579 227.621468 
L 264.270729 226.502303 
L 264.920688 225.99899 
L 265.570647 225.695238 
L 266.220606 225.593697 
L 266.870565 225.695238 
L 267.520524 225.99899 
L 268.170483 226.502303 
L 269.145422 227.621468 
L 270.12036 229.157858 
L 271.095299 231.082226 
L 272.395217 234.188529 
L 274.020115 238.796459 
L 275.969992 245.094586 
L 283.7695 271.269825 
L 285.719378 276.600706 
L 287.344275 280.43887 
L 288.969173 283.713015 
L 290.59407 286.440748 
L 292.218968 288.661779 
L 293.843866 290.43032 
L 295.468763 291.808154 
L 297.093661 292.85885 
L 298.718559 293.643374 
L 300.668436 294.310932 
L 302.943292 294.813763 
L 305.543129 295.146563 
L 309.117903 295.363833 
L 315.292514 295.470412 
L 338.041081 295.487999 
L 398.487273 295.488 
L 398.487273 295.488 
" style="fill:none;stroke:#9467bd;stroke-linecap:square;stroke-width:1.5;"/>
   </g>
   <g id="line2d_20">
    <path clip-path="url(#p2fae7307fc)" d="M 73.832727 295.485722 
L 78.057461 295.39075 
L 79.682359 295.152204 
L 80.657297 294.819214 
L 81.632236 294.20943 
L 82.282195 293.562808 
L 82.932154 292.641416 
L 83.582113 291.35492 
L 84.232072 289.595173 
L 84.882031 287.237628 
L 85.53199 284.145119 
L 86.181949 280.174542 
L 86.831908 275.186732 
L 87.806847 265.538782 
L 88.781785 253.077554 
L 89.756724 237.83987 
L 91.056642 214.039133 
L 93.656478 164.785201 
L 94.631417 150.703413 
L 95.281376 143.967184 
L 95.931335 139.775917 
L 96.256314 138.710111 
L 96.581294 138.353227 
L 96.906274 138.710111 
L 97.231253 139.775917 
L 97.556233 141.536179 
L 98.206192 147.036411 
L 98.856151 154.920515 
L 99.831089 170.311589 
L 101.455987 201.280547 
L 103.405864 237.839753 
L 104.705782 257.548853 
L 105.680721 269.059195 
L 106.655659 277.815615 
L 107.630598 284.144574 
L 108.280557 287.236944 
L 108.930516 289.594316 
L 109.580475 291.353849 
L 110.230434 292.640081 
L 110.880393 293.561146 
L 111.530352 294.207369 
L 112.505291 294.816375 
L 113.480229 295.148316 
L 114.780147 295.356393 
L 117.055004 295.457298 
L 123.229615 295.420199 
L 128.754267 295.216618 
L 132.329042 294.878978 
L 134.928878 294.439015 
L 137.203735 293.850641 
L 139.153612 293.143476 
L 141.103489 292.200367 
L 143.053366 290.973292 
L 144.678264 289.70064 
L 146.303161 288.1762 
L 147.928059 286.383397 
L 149.877936 283.867636 
L 151.827813 280.963664 
L 154.10267 277.137831 
L 157.027486 271.717846 
L 162.227158 261.961874 
L 164.177035 258.781795 
L 165.801933 256.52984 
L 167.101851 255.054201 
L 168.401769 253.910908 
L 169.376708 253.290442 
L 170.351646 252.88404 
L 171.326585 252.698017 
L 172.301523 252.735287 
L 173.276462 252.995264 
L 174.2514 253.473888 
L 175.226339 254.163735 
L 176.526257 255.393348 
L 177.826175 256.946269 
L 179.451073 259.279475 
L 181.40095 262.531504 
L 184.000786 267.348258 
L 189.525438 277.709683 
L 191.800295 281.473394 
L 193.750172 284.314464 
L 195.700049 286.763949 
L 197.649926 288.81742 
L 199.274824 290.238753 
L 201.224701 291.625293 
L 203.174578 292.704416 
L 205.124455 293.523579 
L 207.399312 294.214034 
L 209.999148 294.737974 
L 212.923964 295.092692 
L 216.823718 295.331563 
L 222.998329 295.457096 
L 233.072695 295.428271 
L 236.972449 295.222135 
L 239.247305 294.89395 
L 240.872203 294.469164 
L 242.172121 293.952154 
L 243.472039 293.216004 
L 244.771957 292.189807 
L 245.746896 291.179755 
L 246.721835 289.919799 
L 247.696773 288.367355 
L 248.671712 286.478229 
L 249.64665 284.208292 
L 250.946568 280.517421 
L 252.246486 275.990305 
L 253.546405 270.568923 
L 254.846323 264.235514 
L 256.47122 255.095605 
L 258.421097 242.632117 
L 264.270729 203.691136 
L 265.570647 196.959235 
L 266.545586 192.86711 
L 267.520524 189.733652 
L 268.170483 188.226157 
L 268.820442 187.209234 
L 269.470401 186.697166 
L 269.795381 186.632991 
L 270.12036 186.697166 
L 270.770319 187.209234 
L 271.420278 188.226157 
L 272.070238 189.733652 
L 272.720197 191.710746 
L 273.695135 195.495782 
L 274.670074 200.160117 
L 275.969992 207.50744 
L 277.919869 220.192454 
L 282.794562 253.11923 
L 284.419459 262.512448 
L 286.044357 270.568925 
L 287.344275 275.990305 
L 288.644193 280.517422 
L 289.944111 284.208294 
L 291.244029 287.148098 
L 292.543948 289.436987 
L 293.843866 291.179767 
L 295.143784 292.477947 
L 296.443702 293.424269 
L 297.74362 294.099531 
L 299.368518 294.66412 
L 301.318395 295.064403 
L 303.918231 295.324675 
L 307.817985 295.454058 
L 318.21733 295.487687 
L 329.916593 295.384966 
L 332.19145 295.177345 
L 333.816347 294.840225 
L 335.116265 294.358685 
L 336.091204 293.806354 
L 337.066143 293.023716 
L 338.041081 291.934275 
L 339.01602 290.444713 
L 339.990958 288.444633 
L 340.965897 285.807814 
L 341.940835 282.39546 
L 342.915774 278.06187 
L 343.890713 272.66279 
L 344.865651 266.066459 
L 345.84059 258.167037 
L 347.140508 245.503218 
L 348.440426 230.423557 
L 350.065324 208.578326 
L 352.66516 169.59681 
L 354.615037 141.248415 
L 355.914955 125.067276 
L 356.889894 115.230385 
L 357.864832 107.858288 
L 358.514791 104.485746 
L 359.16475 102.433194 
L 359.48973 101.916612 
L 359.814709 101.744114 
L 360.139689 101.916612 
L 360.464668 102.433194 
L 360.789648 103.291085 
L 361.439607 106.010827 
L 362.089566 110.018447 
L 362.739525 115.230385 
L 363.714464 125.067276 
L 365.014382 141.248415 
L 366.639279 164.681404 
L 370.539034 222.044304 
L 372.163931 241.954605 
L 373.463849 255.231628 
L 374.763767 266.066459 
L 375.738706 272.66279 
L 376.713645 278.06187 
L 377.688583 282.39546 
L 378.663522 285.807814 
L 379.63846 288.444633 
L 380.613399 290.444713 
L 381.588337 291.934275 
L 382.563276 293.023716 
L 383.538215 293.806354 
L 384.838133 294.502565 
L 386.138051 294.926768 
L 387.762948 295.221236 
L 390.037805 295.40062 
L 394.587518 295.480785 
L 398.487273 295.487356 
L 398.487273 295.487356 
" style="fill:none;stroke:#8c564b;stroke-linecap:square;stroke-width:1.5;"/>
   </g>
   <g id="patch_3">
    <path d="M 57.6 307.584 
L 57.6 41.472 
" style="fill:none;stroke:#000000;stroke-linecap:square;stroke-linejoin:miter;stroke-width:0.8;"/>
   </g>
   <g id="patch_4">
    <path d="M 414.72 307.584 
L 414.72 41.472 
" style="fill:none;stroke:#000000;stroke-linecap:square;stroke-linejoin:miter;stroke-width:0.8;"/>
   </g>
   <g id="patch_5">
    <path d="M 57.6 307.584 
L 414.72 307.584 
" style="fill:none;stroke:#000000;stroke-linecap:square;stroke-linejoin:miter;stroke-width:0.8;"/>
   </g>
   <g id="patch_6">
    <path d="M 57.6 41.472 
L 414.72 41.472 
" style="fill:none;stroke:#000000;stroke-linecap:square;stroke-linejoin:miter;stroke-width:0.8;"/>
   </g>
  </g>
 </g>
 <defs>
  <clipPath id="p2fae7307fc">
   <rect height="266.112" width="357.12" x="57.6" y="41.472"/>
  </clipPath>
 </defs>
</svg>
