<?xml version="1.0" encoding="utf-8" standalone="no"?>
<!DOCTYPE svg PUBLIC "-//W3C//DTD SVG 1.1//EN"
  "http://www.w3.org/Graphics/SVG/1.1/DTD/svg11.dtd">
<!-- Created with matplotlib (https://matplotlib.org/) -->
<svg height="345.6pt" version="1.1" viewBox="0 0 648 345.6" width="648pt" xmlns="http://www.w3.org/2000/svg" xmlns:xlink="http://www.w3.org/1999/xlink">
 <metadata>
  <rdf:RDF xmlns:cc="http://creativecommons.org/ns#" xmlns:dc="http://purl.org/dc/elements/1.1/" xmlns:rdf="http://www.w3.org/1999/02/22-rdf-syntax-ns#">
   <cc:Work>
    <dc:type rdf:resource="http://purl.org/dc/dcmitype/StillImage"/>
    <dc:date>2020-12-10T15:31:31.665215</dc:date>
    <dc:format>image/svg+xml</dc:format>
    <dc:creator>
     <cc:Agent>
      <dc:title>Matplotlib v3.3.1, https://matplotlib.org/</dc:title>
     </cc:Agent>
    </dc:creator>
   </cc:Work>
  </rdf:RDF>
 </metadata>
 <defs>
  <style type="text/css">*{stroke-linecap:butt;stroke-linejoin:round;}</style>
 </defs>
 <g id="figure_1">
  <g id="patch_1">
   <path d="M 0 345.6 
L 648 345.6 
L 648 0 
L 0 0 
z
" style="fill:#ffffff;"/>
  </g>
  <g id="axes_1">
   <g id="patch_2">
    <path d="M 81 307.584 
L 583.2 307.584 
L 583.2 41.472 
L 81 41.472 
z
" style="fill:#ffffff;"/>
   </g>
   <g id="matplotlib.axis_1">
    <g id="xtick_1">
     <g id="line2d_1">
      <defs>
       <path d="M 0 0 
L 0 3.5 
" id="mc0b6a764ac" style="stroke:#000000;stroke-width:0.8;"/>
      </defs>
      <g>
       <use style="stroke:#000000;stroke-width:0.8;" x="103.827273" xlink:href="#mc0b6a764ac" y="307.584"/>
      </g>
     </g>
     <g id="text_1">
      <!-- 400 -->
      <g transform="translate(94.283523 322.182437)scale(0.1 -0.1)">
       <defs>
        <path d="M 37.796875 64.3125 
L 12.890625 25.390625 
L 37.796875 25.390625 
z
M 35.203125 72.90625 
L 47.609375 72.90625 
L 47.609375 25.390625 
L 58.015625 25.390625 
L 58.015625 17.1875 
L 47.609375 17.1875 
L 47.609375 0 
L 37.796875 0 
L 37.796875 17.1875 
L 4.890625 17.1875 
L 4.890625 26.703125 
z
" id="DejaVuSans-52"/>
        <path d="M 31.78125 66.40625 
Q 24.171875 66.40625 20.328125 58.90625 
Q 16.5 51.421875 16.5 36.375 
Q 16.5 21.390625 20.328125 13.890625 
Q 24.171875 6.390625 31.78125 6.390625 
Q 39.453125 6.390625 43.28125 13.890625 
Q 47.125 21.390625 47.125 36.375 
Q 47.125 51.421875 43.28125 58.90625 
Q 39.453125 66.40625 31.78125 66.40625 
z
M 31.78125 74.21875 
Q 44.046875 74.21875 50.515625 64.515625 
Q 56.984375 54.828125 56.984375 36.375 
Q 56.984375 17.96875 50.515625 8.265625 
Q 44.046875 -1.421875 31.78125 -1.421875 
Q 19.53125 -1.421875 13.0625 8.265625 
Q 6.59375 17.96875 6.59375 36.375 
Q 6.59375 54.828125 13.0625 64.515625 
Q 19.53125 74.21875 31.78125 74.21875 
z
" id="DejaVuSans-48"/>
       </defs>
       <use xlink:href="#DejaVuSans-52"/>
       <use x="63.623047" xlink:href="#DejaVuSans-48"/>
       <use x="127.246094" xlink:href="#DejaVuSans-48"/>
      </g>
     </g>
    </g>
    <g id="xtick_2">
     <g id="line2d_2">
      <g>
       <use style="stroke:#000000;stroke-width:0.8;" x="179.918182" xlink:href="#mc0b6a764ac" y="307.584"/>
      </g>
     </g>
     <g id="text_2">
      <!-- 450 -->
      <g transform="translate(170.374432 322.182437)scale(0.1 -0.1)">
       <defs>
        <path d="M 10.796875 72.90625 
L 49.515625 72.90625 
L 49.515625 64.59375 
L 19.828125 64.59375 
L 19.828125 46.734375 
Q 21.96875 47.46875 24.109375 47.828125 
Q 26.265625 48.1875 28.421875 48.1875 
Q 40.625 48.1875 47.75 41.5 
Q 54.890625 34.8125 54.890625 23.390625 
Q 54.890625 11.625 47.5625 5.09375 
Q 40.234375 -1.421875 26.90625 -1.421875 
Q 22.3125 -1.421875 17.546875 -0.640625 
Q 12.796875 0.140625 7.71875 1.703125 
L 7.71875 11.625 
Q 12.109375 9.234375 16.796875 8.0625 
Q 21.484375 6.890625 26.703125 6.890625 
Q 35.15625 6.890625 40.078125 11.328125 
Q 45.015625 15.765625 45.015625 23.390625 
Q 45.015625 31 40.078125 35.4375 
Q 35.15625 39.890625 26.703125 39.890625 
Q 22.75 39.890625 18.8125 39.015625 
Q 14.890625 38.140625 10.796875 36.28125 
z
" id="DejaVuSans-53"/>
       </defs>
       <use xlink:href="#DejaVuSans-52"/>
       <use x="63.623047" xlink:href="#DejaVuSans-53"/>
       <use x="127.246094" xlink:href="#DejaVuSans-48"/>
      </g>
     </g>
    </g>
    <g id="xtick_3">
     <g id="line2d_3">
      <g>
       <use style="stroke:#000000;stroke-width:0.8;" x="256.009091" xlink:href="#mc0b6a764ac" y="307.584"/>
      </g>
     </g>
     <g id="text_3">
      <!-- 500 -->
      <g transform="translate(246.465341 322.182437)scale(0.1 -0.1)">
       <use xlink:href="#DejaVuSans-53"/>
       <use x="63.623047" xlink:href="#DejaVuSans-48"/>
       <use x="127.246094" xlink:href="#DejaVuSans-48"/>
      </g>
     </g>
    </g>
    <g id="xtick_4">
     <g id="line2d_4">
      <g>
       <use style="stroke:#000000;stroke-width:0.8;" x="332.1" xlink:href="#mc0b6a764ac" y="307.584"/>
      </g>
     </g>
     <g id="text_4">
      <!-- 550 -->
      <g transform="translate(322.55625 322.182437)scale(0.1 -0.1)">
       <use xlink:href="#DejaVuSans-53"/>
       <use x="63.623047" xlink:href="#DejaVuSans-53"/>
       <use x="127.246094" xlink:href="#DejaVuSans-48"/>
      </g>
     </g>
    </g>
    <g id="xtick_5">
     <g id="line2d_5">
      <g>
       <use style="stroke:#000000;stroke-width:0.8;" x="408.190909" xlink:href="#mc0b6a764ac" y="307.584"/>
      </g>
     </g>
     <g id="text_5">
      <!-- 600 -->
      <g transform="translate(398.647159 322.182437)scale(0.1 -0.1)">
       <defs>
        <path d="M 33.015625 40.375 
Q 26.375 40.375 22.484375 35.828125 
Q 18.609375 31.296875 18.609375 23.390625 
Q 18.609375 15.53125 22.484375 10.953125 
Q 26.375 6.390625 33.015625 6.390625 
Q 39.65625 6.390625 43.53125 10.953125 
Q 47.40625 15.53125 47.40625 23.390625 
Q 47.40625 31.296875 43.53125 35.828125 
Q 39.65625 40.375 33.015625 40.375 
z
M 52.59375 71.296875 
L 52.59375 62.3125 
Q 48.875 64.0625 45.09375 64.984375 
Q 41.3125 65.921875 37.59375 65.921875 
Q 27.828125 65.921875 22.671875 59.328125 
Q 17.53125 52.734375 16.796875 39.40625 
Q 19.671875 43.65625 24.015625 45.921875 
Q 28.375 48.1875 33.59375 48.1875 
Q 44.578125 48.1875 50.953125 41.515625 
Q 57.328125 34.859375 57.328125 23.390625 
Q 57.328125 12.15625 50.6875 5.359375 
Q 44.046875 -1.421875 33.015625 -1.421875 
Q 20.359375 -1.421875 13.671875 8.265625 
Q 6.984375 17.96875 6.984375 36.375 
Q 6.984375 53.65625 15.1875 63.9375 
Q 23.390625 74.21875 37.203125 74.21875 
Q 40.921875 74.21875 44.703125 73.484375 
Q 48.484375 72.75 52.59375 71.296875 
z
" id="DejaVuSans-54"/>
       </defs>
       <use xlink:href="#DejaVuSans-54"/>
       <use x="63.623047" xlink:href="#DejaVuSans-48"/>
       <use x="127.246094" xlink:href="#DejaVuSans-48"/>
      </g>
     </g>
    </g>
    <g id="xtick_6">
     <g id="line2d_6">
      <g>
       <use style="stroke:#000000;stroke-width:0.8;" x="484.281818" xlink:href="#mc0b6a764ac" y="307.584"/>
      </g>
     </g>
     <g id="text_6">
      <!-- 650 -->
      <g transform="translate(474.738068 322.182437)scale(0.1 -0.1)">
       <use xlink:href="#DejaVuSans-54"/>
       <use x="63.623047" xlink:href="#DejaVuSans-53"/>
       <use x="127.246094" xlink:href="#DejaVuSans-48"/>
      </g>
     </g>
    </g>
    <g id="xtick_7">
     <g id="line2d_7">
      <g>
       <use style="stroke:#000000;stroke-width:0.8;" x="560.372727" xlink:href="#mc0b6a764ac" y="307.584"/>
      </g>
     </g>
     <g id="text_7">
      <!-- 700 -->
      <g transform="translate(550.828977 322.182437)scale(0.1 -0.1)">
       <defs>
        <path d="M 8.203125 72.90625 
L 55.078125 72.90625 
L 55.078125 68.703125 
L 28.609375 0 
L 18.3125 0 
L 43.21875 64.59375 
L 8.203125 64.59375 
z
" id="DejaVuSans-55"/>
       </defs>
       <use xlink:href="#DejaVuSans-55"/>
       <use x="63.623047" xlink:href="#DejaVuSans-48"/>
       <use x="127.246094" xlink:href="#DejaVuSans-48"/>
      </g>
     </g>
    </g>
    <g id="text_8">
     <!-- Wavelength (nm) -->
     <g transform="translate(288.907813 335.860562)scale(0.1 -0.1)">
      <defs>
       <path d="M 3.328125 72.90625 
L 13.28125 72.90625 
L 28.609375 11.28125 
L 43.890625 72.90625 
L 54.984375 72.90625 
L 70.3125 11.28125 
L 85.59375 72.90625 
L 95.609375 72.90625 
L 77.296875 0 
L 64.890625 0 
L 49.515625 63.28125 
L 33.984375 0 
L 21.578125 0 
z
" id="DejaVuSans-87"/>
       <path d="M 34.28125 27.484375 
Q 23.390625 27.484375 19.1875 25 
Q 14.984375 22.515625 14.984375 16.5 
Q 14.984375 11.71875 18.140625 8.90625 
Q 21.296875 6.109375 26.703125 6.109375 
Q 34.1875 6.109375 38.703125 11.40625 
Q 43.21875 16.703125 43.21875 25.484375 
L 43.21875 27.484375 
z
M 52.203125 31.203125 
L 52.203125 0 
L 43.21875 0 
L 43.21875 8.296875 
Q 40.140625 3.328125 35.546875 0.953125 
Q 30.953125 -1.421875 24.3125 -1.421875 
Q 15.921875 -1.421875 10.953125 3.296875 
Q 6 8.015625 6 15.921875 
Q 6 25.140625 12.171875 29.828125 
Q 18.359375 34.515625 30.609375 34.515625 
L 43.21875 34.515625 
L 43.21875 35.40625 
Q 43.21875 41.609375 39.140625 45 
Q 35.0625 48.390625 27.6875 48.390625 
Q 23 48.390625 18.546875 47.265625 
Q 14.109375 46.140625 10.015625 43.890625 
L 10.015625 52.203125 
Q 14.9375 54.109375 19.578125 55.046875 
Q 24.21875 56 28.609375 56 
Q 40.484375 56 46.34375 49.84375 
Q 52.203125 43.703125 52.203125 31.203125 
z
" id="DejaVuSans-97"/>
       <path d="M 2.984375 54.6875 
L 12.5 54.6875 
L 29.59375 8.796875 
L 46.6875 54.6875 
L 56.203125 54.6875 
L 35.6875 0 
L 23.484375 0 
z
" id="DejaVuSans-118"/>
       <path d="M 56.203125 29.59375 
L 56.203125 25.203125 
L 14.890625 25.203125 
Q 15.484375 15.921875 20.484375 11.0625 
Q 25.484375 6.203125 34.421875 6.203125 
Q 39.59375 6.203125 44.453125 7.46875 
Q 49.3125 8.734375 54.109375 11.28125 
L 54.109375 2.78125 
Q 49.265625 0.734375 44.1875 -0.34375 
Q 39.109375 -1.421875 33.890625 -1.421875 
Q 20.796875 -1.421875 13.15625 6.1875 
Q 5.515625 13.8125 5.515625 26.8125 
Q 5.515625 40.234375 12.765625 48.109375 
Q 20.015625 56 32.328125 56 
Q 43.359375 56 49.78125 48.890625 
Q 56.203125 41.796875 56.203125 29.59375 
z
M 47.21875 32.234375 
Q 47.125 39.59375 43.09375 43.984375 
Q 39.0625 48.390625 32.421875 48.390625 
Q 24.90625 48.390625 20.390625 44.140625 
Q 15.875 39.890625 15.1875 32.171875 
z
" id="DejaVuSans-101"/>
       <path d="M 9.421875 75.984375 
L 18.40625 75.984375 
L 18.40625 0 
L 9.421875 0 
z
" id="DejaVuSans-108"/>
       <path d="M 54.890625 33.015625 
L 54.890625 0 
L 45.90625 0 
L 45.90625 32.71875 
Q 45.90625 40.484375 42.875 44.328125 
Q 39.84375 48.1875 33.796875 48.1875 
Q 26.515625 48.1875 22.3125 43.546875 
Q 18.109375 38.921875 18.109375 30.90625 
L 18.109375 0 
L 9.078125 0 
L 9.078125 54.6875 
L 18.109375 54.6875 
L 18.109375 46.1875 
Q 21.34375 51.125 25.703125 53.5625 
Q 30.078125 56 35.796875 56 
Q 45.21875 56 50.046875 50.171875 
Q 54.890625 44.34375 54.890625 33.015625 
z
" id="DejaVuSans-110"/>
       <path d="M 45.40625 27.984375 
Q 45.40625 37.75 41.375 43.109375 
Q 37.359375 48.484375 30.078125 48.484375 
Q 22.859375 48.484375 18.828125 43.109375 
Q 14.796875 37.75 14.796875 27.984375 
Q 14.796875 18.265625 18.828125 12.890625 
Q 22.859375 7.515625 30.078125 7.515625 
Q 37.359375 7.515625 41.375 12.890625 
Q 45.40625 18.265625 45.40625 27.984375 
z
M 54.390625 6.78125 
Q 54.390625 -7.171875 48.1875 -13.984375 
Q 42 -20.796875 29.203125 -20.796875 
Q 24.46875 -20.796875 20.265625 -20.09375 
Q 16.0625 -19.390625 12.109375 -17.921875 
L 12.109375 -9.1875 
Q 16.0625 -11.328125 19.921875 -12.34375 
Q 23.78125 -13.375 27.78125 -13.375 
Q 36.625 -13.375 41.015625 -8.765625 
Q 45.40625 -4.15625 45.40625 5.171875 
L 45.40625 9.625 
Q 42.625 4.78125 38.28125 2.390625 
Q 33.9375 0 27.875 0 
Q 17.828125 0 11.671875 7.65625 
Q 5.515625 15.328125 5.515625 27.984375 
Q 5.515625 40.671875 11.671875 48.328125 
Q 17.828125 56 27.875 56 
Q 33.9375 56 38.28125 53.609375 
Q 42.625 51.21875 45.40625 46.390625 
L 45.40625 54.6875 
L 54.390625 54.6875 
z
" id="DejaVuSans-103"/>
       <path d="M 18.3125 70.21875 
L 18.3125 54.6875 
L 36.8125 54.6875 
L 36.8125 47.703125 
L 18.3125 47.703125 
L 18.3125 18.015625 
Q 18.3125 11.328125 20.140625 9.421875 
Q 21.96875 7.515625 27.59375 7.515625 
L 36.8125 7.515625 
L 36.8125 0 
L 27.59375 0 
Q 17.1875 0 13.234375 3.875 
Q 9.28125 7.765625 9.28125 18.015625 
L 9.28125 47.703125 
L 2.6875 47.703125 
L 2.6875 54.6875 
L 9.28125 54.6875 
L 9.28125 70.21875 
z
" id="DejaVuSans-116"/>
       <path d="M 54.890625 33.015625 
L 54.890625 0 
L 45.90625 0 
L 45.90625 32.71875 
Q 45.90625 40.484375 42.875 44.328125 
Q 39.84375 48.1875 33.796875 48.1875 
Q 26.515625 48.1875 22.3125 43.546875 
Q 18.109375 38.921875 18.109375 30.90625 
L 18.109375 0 
L 9.078125 0 
L 9.078125 75.984375 
L 18.109375 75.984375 
L 18.109375 46.1875 
Q 21.34375 51.125 25.703125 53.5625 
Q 30.078125 56 35.796875 56 
Q 45.21875 56 50.046875 50.171875 
Q 54.890625 44.34375 54.890625 33.015625 
z
" id="DejaVuSans-104"/>
       <path id="DejaVuSans-32"/>
       <path d="M 31 75.875 
Q 24.46875 64.65625 21.28125 53.65625 
Q 18.109375 42.671875 18.109375 31.390625 
Q 18.109375 20.125 21.3125 9.0625 
Q 24.515625 -2 31 -13.1875 
L 23.1875 -13.1875 
Q 15.875 -1.703125 12.234375 9.375 
Q 8.59375 20.453125 8.59375 31.390625 
Q 8.59375 42.28125 12.203125 53.3125 
Q 15.828125 64.359375 23.1875 75.875 
z
" id="DejaVuSans-40"/>
       <path d="M 52 44.1875 
Q 55.375 50.25 60.0625 53.125 
Q 64.75 56 71.09375 56 
Q 79.640625 56 84.28125 50.015625 
Q 88.921875 44.046875 88.921875 33.015625 
L 88.921875 0 
L 79.890625 0 
L 79.890625 32.71875 
Q 79.890625 40.578125 77.09375 44.375 
Q 74.3125 48.1875 68.609375 48.1875 
Q 61.625 48.1875 57.5625 43.546875 
Q 53.515625 38.921875 53.515625 30.90625 
L 53.515625 0 
L 44.484375 0 
L 44.484375 32.71875 
Q 44.484375 40.625 41.703125 44.40625 
Q 38.921875 48.1875 33.109375 48.1875 
Q 26.21875 48.1875 22.15625 43.53125 
Q 18.109375 38.875 18.109375 30.90625 
L 18.109375 0 
L 9.078125 0 
L 9.078125 54.6875 
L 18.109375 54.6875 
L 18.109375 46.1875 
Q 21.1875 51.21875 25.484375 53.609375 
Q 29.78125 56 35.6875 56 
Q 41.65625 56 45.828125 52.96875 
Q 50 49.953125 52 44.1875 
z
" id="DejaVuSans-109"/>
       <path d="M 8.015625 75.875 
L 15.828125 75.875 
Q 23.140625 64.359375 26.78125 53.3125 
Q 30.421875 42.28125 30.421875 31.390625 
Q 30.421875 20.453125 26.78125 9.375 
Q 23.140625 -1.703125 15.828125 -13.1875 
L 8.015625 -13.1875 
Q 14.5 -2 17.703125 9.0625 
Q 20.90625 20.125 20.90625 31.390625 
Q 20.90625 42.671875 17.703125 53.65625 
Q 14.5 64.65625 8.015625 75.875 
z
" id="DejaVuSans-41"/>
      </defs>
      <use xlink:href="#DejaVuSans-87"/>
      <use x="92.501953" xlink:href="#DejaVuSans-97"/>
      <use x="153.78125" xlink:href="#DejaVuSans-118"/>
      <use x="212.960938" xlink:href="#DejaVuSans-101"/>
      <use x="274.484375" xlink:href="#DejaVuSans-108"/>
      <use x="302.267578" xlink:href="#DejaVuSans-101"/>
      <use x="363.791016" xlink:href="#DejaVuSans-110"/>
      <use x="427.169922" xlink:href="#DejaVuSans-103"/>
      <use x="490.646484" xlink:href="#DejaVuSans-116"/>
      <use x="529.855469" xlink:href="#DejaVuSans-104"/>
      <use x="593.234375" xlink:href="#DejaVuSans-32"/>
      <use x="625.021484" xlink:href="#DejaVuSans-40"/>
      <use x="664.035156" xlink:href="#DejaVuSans-110"/>
      <use x="727.414062" xlink:href="#DejaVuSans-109"/>
      <use x="824.826172" xlink:href="#DejaVuSans-41"/>
     </g>
    </g>
   </g>
   <g id="matplotlib.axis_2">
    <g id="ytick_1">
     <g id="line2d_8">
      <defs>
       <path d="M 0 0 
L -3.5 0 
" id="meaf2460b1d" style="stroke:#000000;stroke-width:0.8;"/>
      </defs>
      <g>
       <use style="stroke:#000000;stroke-width:0.8;" x="81" xlink:href="#meaf2460b1d" y="295.488"/>
      </g>
     </g>
     <g id="text_9">
      <!-- 0.0 -->
      <g transform="translate(58.096875 299.287219)scale(0.1 -0.1)">
       <defs>
        <path d="M 10.6875 12.40625 
L 21 12.40625 
L 21 0 
L 10.6875 0 
z
" id="DejaVuSans-46"/>
       </defs>
       <use xlink:href="#DejaVuSans-48"/>
       <use x="63.623047" xlink:href="#DejaVuSans-46"/>
       <use x="95.410156" xlink:href="#DejaVuSans-48"/>
      </g>
     </g>
    </g>
    <g id="ytick_2">
     <g id="line2d_9">
      <g>
       <use style="stroke:#000000;stroke-width:0.8;" x="81" xlink:href="#meaf2460b1d" y="254.109143"/>
      </g>
     </g>
     <g id="text_10">
      <!-- 0.2 -->
      <g transform="translate(58.096875 257.908362)scale(0.1 -0.1)">
       <defs>
        <path d="M 19.1875 8.296875 
L 53.609375 8.296875 
L 53.609375 0 
L 7.328125 0 
L 7.328125 8.296875 
Q 12.9375 14.109375 22.625 23.890625 
Q 32.328125 33.6875 34.8125 36.53125 
Q 39.546875 41.84375 41.421875 45.53125 
Q 43.3125 49.21875 43.3125 52.78125 
Q 43.3125 58.59375 39.234375 62.25 
Q 35.15625 65.921875 28.609375 65.921875 
Q 23.96875 65.921875 18.8125 64.3125 
Q 13.671875 62.703125 7.8125 59.421875 
L 7.8125 69.390625 
Q 13.765625 71.78125 18.9375 73 
Q 24.125 74.21875 28.421875 74.21875 
Q 39.75 74.21875 46.484375 68.546875 
Q 53.21875 62.890625 53.21875 53.421875 
Q 53.21875 48.921875 51.53125 44.890625 
Q 49.859375 40.875 45.40625 35.40625 
Q 44.1875 33.984375 37.640625 27.21875 
Q 31.109375 20.453125 19.1875 8.296875 
z
" id="DejaVuSans-50"/>
       </defs>
       <use xlink:href="#DejaVuSans-48"/>
       <use x="63.623047" xlink:href="#DejaVuSans-46"/>
       <use x="95.410156" xlink:href="#DejaVuSans-50"/>
      </g>
     </g>
    </g>
    <g id="ytick_3">
     <g id="line2d_10">
      <g>
       <use style="stroke:#000000;stroke-width:0.8;" x="81" xlink:href="#meaf2460b1d" y="212.730286"/>
      </g>
     </g>
     <g id="text_11">
      <!-- 0.4 -->
      <g transform="translate(58.096875 216.529505)scale(0.1 -0.1)">
       <use xlink:href="#DejaVuSans-48"/>
       <use x="63.623047" xlink:href="#DejaVuSans-46"/>
       <use x="95.410156" xlink:href="#DejaVuSans-52"/>
      </g>
     </g>
    </g>
    <g id="ytick_4">
     <g id="line2d_11">
      <g>
       <use style="stroke:#000000;stroke-width:0.8;" x="81" xlink:href="#meaf2460b1d" y="171.351429"/>
      </g>
     </g>
     <g id="text_12">
      <!-- 0.6 -->
      <g transform="translate(58.096875 175.150647)scale(0.1 -0.1)">
       <use xlink:href="#DejaVuSans-48"/>
       <use x="63.623047" xlink:href="#DejaVuSans-46"/>
       <use x="95.410156" xlink:href="#DejaVuSans-54"/>
      </g>
     </g>
    </g>
    <g id="ytick_5">
     <g id="line2d_12">
      <g>
       <use style="stroke:#000000;stroke-width:0.8;" x="81" xlink:href="#meaf2460b1d" y="129.972572"/>
      </g>
     </g>
     <g id="text_13">
      <!-- 0.8 -->
      <g transform="translate(58.096875 133.77179)scale(0.1 -0.1)">
       <defs>
        <path d="M 31.78125 34.625 
Q 24.75 34.625 20.71875 30.859375 
Q 16.703125 27.09375 16.703125 20.515625 
Q 16.703125 13.921875 20.71875 10.15625 
Q 24.75 6.390625 31.78125 6.390625 
Q 38.8125 6.390625 42.859375 10.171875 
Q 46.921875 13.96875 46.921875 20.515625 
Q 46.921875 27.09375 42.890625 30.859375 
Q 38.875 34.625 31.78125 34.625 
z
M 21.921875 38.8125 
Q 15.578125 40.375 12.03125 44.71875 
Q 8.5 49.078125 8.5 55.328125 
Q 8.5 64.0625 14.71875 69.140625 
Q 20.953125 74.21875 31.78125 74.21875 
Q 42.671875 74.21875 48.875 69.140625 
Q 55.078125 64.0625 55.078125 55.328125 
Q 55.078125 49.078125 51.53125 44.71875 
Q 48 40.375 41.703125 38.8125 
Q 48.828125 37.15625 52.796875 32.3125 
Q 56.78125 27.484375 56.78125 20.515625 
Q 56.78125 9.90625 50.3125 4.234375 
Q 43.84375 -1.421875 31.78125 -1.421875 
Q 19.734375 -1.421875 13.25 4.234375 
Q 6.78125 9.90625 6.78125 20.515625 
Q 6.78125 27.484375 10.78125 32.3125 
Q 14.796875 37.15625 21.921875 38.8125 
z
M 18.3125 54.390625 
Q 18.3125 48.734375 21.84375 45.5625 
Q 25.390625 42.390625 31.78125 42.390625 
Q 38.140625 42.390625 41.71875 45.5625 
Q 45.3125 48.734375 45.3125 54.390625 
Q 45.3125 60.0625 41.71875 63.234375 
Q 38.140625 66.40625 31.78125 66.40625 
Q 25.390625 66.40625 21.84375 63.234375 
Q 18.3125 60.0625 18.3125 54.390625 
z
" id="DejaVuSans-56"/>
       </defs>
       <use xlink:href="#DejaVuSans-48"/>
       <use x="63.623047" xlink:href="#DejaVuSans-46"/>
       <use x="95.410156" xlink:href="#DejaVuSans-56"/>
      </g>
     </g>
    </g>
    <g id="ytick_6">
     <g id="line2d_13">
      <g>
       <use style="stroke:#000000;stroke-width:0.8;" x="81" xlink:href="#meaf2460b1d" y="88.593714"/>
      </g>
     </g>
     <g id="text_14">
      <!-- 1.0 -->
      <g transform="translate(58.096875 92.392933)scale(0.1 -0.1)">
       <defs>
        <path d="M 12.40625 8.296875 
L 28.515625 8.296875 
L 28.515625 63.921875 
L 10.984375 60.40625 
L 10.984375 69.390625 
L 28.421875 72.90625 
L 38.28125 72.90625 
L 38.28125 8.296875 
L 54.390625 8.296875 
L 54.390625 0 
L 12.40625 0 
z
" id="DejaVuSans-49"/>
       </defs>
       <use xlink:href="#DejaVuSans-49"/>
       <use x="63.623047" xlink:href="#DejaVuSans-46"/>
       <use x="95.410156" xlink:href="#DejaVuSans-48"/>
      </g>
     </g>
    </g>
    <g id="ytick_7">
     <g id="line2d_14">
      <g>
       <use style="stroke:#000000;stroke-width:0.8;" x="81" xlink:href="#meaf2460b1d" y="47.214857"/>
      </g>
     </g>
     <g id="text_15">
      <!-- 1.2 -->
      <g transform="translate(58.096875 51.014076)scale(0.1 -0.1)">
       <use xlink:href="#DejaVuSans-49"/>
       <use x="63.623047" xlink:href="#DejaVuSans-46"/>
       <use x="95.410156" xlink:href="#DejaVuSans-50"/>
      </g>
     </g>
    </g>
    <g id="text_16">
     <!-- Intensity (AU) -->
     <g transform="translate(52.017187 208.860813)rotate(-90)scale(0.1 -0.1)">
      <defs>
       <path d="M 9.8125 72.90625 
L 19.671875 72.90625 
L 19.671875 0 
L 9.8125 0 
z
" id="DejaVuSans-73"/>
       <path d="M 44.28125 53.078125 
L 44.28125 44.578125 
Q 40.484375 46.53125 36.375 47.5 
Q 32.28125 48.484375 27.875 48.484375 
Q 21.1875 48.484375 17.84375 46.4375 
Q 14.5 44.390625 14.5 40.28125 
Q 14.5 37.15625 16.890625 35.375 
Q 19.28125 33.59375 26.515625 31.984375 
L 29.59375 31.296875 
Q 39.15625 29.25 43.1875 25.515625 
Q 47.21875 21.78125 47.21875 15.09375 
Q 47.21875 7.46875 41.1875 3.015625 
Q 35.15625 -1.421875 24.609375 -1.421875 
Q 20.21875 -1.421875 15.453125 -0.5625 
Q 10.6875 0.296875 5.421875 2 
L 5.421875 11.28125 
Q 10.40625 8.6875 15.234375 7.390625 
Q 20.0625 6.109375 24.8125 6.109375 
Q 31.15625 6.109375 34.5625 8.28125 
Q 37.984375 10.453125 37.984375 14.40625 
Q 37.984375 18.0625 35.515625 20.015625 
Q 33.0625 21.96875 24.703125 23.78125 
L 21.578125 24.515625 
Q 13.234375 26.265625 9.515625 29.90625 
Q 5.8125 33.546875 5.8125 39.890625 
Q 5.8125 47.609375 11.28125 51.796875 
Q 16.75 56 26.8125 56 
Q 31.78125 56 36.171875 55.265625 
Q 40.578125 54.546875 44.28125 53.078125 
z
" id="DejaVuSans-115"/>
       <path d="M 9.421875 54.6875 
L 18.40625 54.6875 
L 18.40625 0 
L 9.421875 0 
z
M 9.421875 75.984375 
L 18.40625 75.984375 
L 18.40625 64.59375 
L 9.421875 64.59375 
z
" id="DejaVuSans-105"/>
       <path d="M 32.171875 -5.078125 
Q 28.375 -14.84375 24.75 -17.8125 
Q 21.140625 -20.796875 15.09375 -20.796875 
L 7.90625 -20.796875 
L 7.90625 -13.28125 
L 13.1875 -13.28125 
Q 16.890625 -13.28125 18.9375 -11.515625 
Q 21 -9.765625 23.484375 -3.21875 
L 25.09375 0.875 
L 2.984375 54.6875 
L 12.5 54.6875 
L 29.59375 11.921875 
L 46.6875 54.6875 
L 56.203125 54.6875 
z
" id="DejaVuSans-121"/>
       <path d="M 34.1875 63.1875 
L 20.796875 26.90625 
L 47.609375 26.90625 
z
M 28.609375 72.90625 
L 39.796875 72.90625 
L 67.578125 0 
L 57.328125 0 
L 50.6875 18.703125 
L 17.828125 18.703125 
L 11.1875 0 
L 0.78125 0 
z
" id="DejaVuSans-65"/>
       <path d="M 8.6875 72.90625 
L 18.609375 72.90625 
L 18.609375 28.609375 
Q 18.609375 16.890625 22.84375 11.734375 
Q 27.09375 6.59375 36.625 6.59375 
Q 46.09375 6.59375 50.34375 11.734375 
Q 54.59375 16.890625 54.59375 28.609375 
L 54.59375 72.90625 
L 64.5 72.90625 
L 64.5 27.390625 
Q 64.5 13.140625 57.4375 5.859375 
Q 50.390625 -1.421875 36.625 -1.421875 
Q 22.796875 -1.421875 15.734375 5.859375 
Q 8.6875 13.140625 8.6875 27.390625 
z
" id="DejaVuSans-85"/>
      </defs>
      <use xlink:href="#DejaVuSans-73"/>
      <use x="29.492188" xlink:href="#DejaVuSans-110"/>
      <use x="92.871094" xlink:href="#DejaVuSans-116"/>
      <use x="132.080078" xlink:href="#DejaVuSans-101"/>
      <use x="193.603516" xlink:href="#DejaVuSans-110"/>
      <use x="256.982422" xlink:href="#DejaVuSans-115"/>
      <use x="309.082031" xlink:href="#DejaVuSans-105"/>
      <use x="336.865234" xlink:href="#DejaVuSans-116"/>
      <use x="376.074219" xlink:href="#DejaVuSans-121"/>
      <use x="435.253906" xlink:href="#DejaVuSans-32"/>
      <use x="467.041016" xlink:href="#DejaVuSans-40"/>
      <use x="506.054688" xlink:href="#DejaVuSans-65"/>
      <use x="574.462891" xlink:href="#DejaVuSans-85"/>
      <use x="647.65625" xlink:href="#DejaVuSans-41"/>
     </g>
    </g>
   </g>
   <g id="line2d_15">
    <path clip-path="url(#p1229f4adde)" d="M 103.827273 295.488 
L 265.14914 295.391486 
L 268.348157 295.144552 
L 270.176167 294.815618 
L 271.547174 294.40324 
L 272.918182 293.775869 
L 274.289189 292.84421 
L 275.203194 291.998729 
L 276.117199 290.927483 
L 277.031204 289.585103 
L 277.945209 287.921624 
L 278.859214 285.883332 
L 279.773219 283.414077 
L 280.687224 280.457061 
L 281.601229 276.957143 
L 282.972236 270.580426 
L 284.343243 262.734813 
L 285.714251 253.351161 
L 287.085258 242.453737 
L 288.913268 225.833343 
L 291.655283 198.027642 
L 294.397297 170.562604 
L 295.768305 158.623291 
L 297.139312 148.79195 
L 298.053317 143.706932 
L 298.967322 139.967209 
L 299.424324 138.636651 
L 299.881327 137.679279 
L 300.338329 137.102062 
L 300.795332 136.909191 
L 301.252334 137.102062 
L 301.709337 137.679279 
L 302.166339 138.636651 
L 302.623342 139.967209 
L 303.537346 143.706932 
L 304.451351 148.79195 
L 305.365356 155.080323 
L 306.736364 166.389441 
L 308.564373 183.931142 
L 313.5914 234.412427 
L 315.41941 249.882496 
L 316.790418 259.778798 
L 318.161425 268.13347 
L 319.532432 274.987494 
L 320.90344 280.457061 
L 322.274447 284.706134 
L 323.188452 286.9528 
L 324.102457 288.796783 
L 325.016462 290.293208 
L 325.930467 291.494047 
L 327.301474 292.84421 
L 328.672482 293.775869 
L 330.043489 294.40324 
L 331.871499 294.917491 
L 334.156511 295.246098 
L 337.355528 295.422299 
L 343.753563 295.484611 
L 397.679853 295.462752 
L 401.792875 295.289959 
L 403.620885 295.038943 
L 404.991892 294.69002 
L 406.362899 294.116684 
L 407.276904 293.556828 
L 408.190909 292.808586 
L 409.104914 291.82536 
L 410.018919 290.555302 
L 410.932924 288.942988 
L 411.846929 286.931971 
L 412.760934 284.468293 
L 413.674939 281.504883 
L 415.045946 276.050707 
L 416.416953 269.358813 
L 417.787961 261.519487 
L 419.615971 249.736967 
L 422.814988 228.714842 
L 424.185995 221.216251 
L 425.1 217.214032 
L 426.014005 214.201321 
L 426.471007 213.105858 
L 426.92801 212.299742 
L 427.385012 211.790492 
L 427.842015 211.582151 
L 428.299017 211.675189 
L 428.75602 212.066454 
L 429.213022 212.749226 
L 429.670025 213.713245 
L 430.584029 216.427475 
L 431.498034 220.064042 
L 432.869042 226.832427 
L 437.439066 251.608185 
L 438.353071 255.387081 
L 439.267076 258.4092 
L 440.181081 260.593962 
L 440.638084 261.358581 
L 441.095086 261.902487 
L 441.552088 262.227126 
L 442.009091 262.336287 
L 442.466093 262.236014 
L 442.923096 261.934448 
L 443.380098 261.441703 
L 444.294103 259.932 
L 445.208108 257.820995 
L 446.579115 253.826252 
L 450.692138 240.77135 
L 451.606143 238.623634 
L 452.520147 237.02236 
L 453.434152 236.051571 
L 453.891155 235.821107 
L 454.348157 235.766699 
L 454.80516 235.890536 
L 455.262162 236.192882 
L 455.719165 236.672148 
L 456.63317 238.145984 
L 457.547174 240.264529 
L 458.461179 242.956433 
L 459.832187 247.867861 
L 461.660197 255.484687 
L 465.316216 271.169406 
L 467.144226 277.890485 
L 468.515233 282.125 
L 469.886241 285.620665 
L 471.257248 288.403017 
L 472.628256 290.541243 
L 473.999263 292.129501 
L 475.37027 293.27076 
L 476.741278 294.064613 
L 478.112285 294.599462 
L 479.940295 295.034161 
L 482.225307 295.305278 
L 485.881327 295.451745 
L 495.021376 295.487734 
L 560.372727 295.488 
L 560.372727 295.488 
" style="fill:none;stroke:#1f77b4;stroke-linecap:square;stroke-width:1.5;"/>
   </g>
   <g id="line2d_16">
    <path clip-path="url(#p1229f4adde)" d="M 103.827273 249.251524 
L 106.112285 239.688034 
L 108.397297 229.118914 
L 111.139312 215.30924 
L 114.795332 195.570334 
L 124.392383 141.880115 
L 127.134398 125.606634 
L 129.876413 107.871952 
L 135.817445 67.977902 
L 137.188452 60.949728 
L 138.102457 57.371836 
L 139.016462 54.891949 
L 139.473464 54.114351 
L 139.930467 53.668209 
L 140.387469 53.568 
L 140.844472 53.825465 
L 141.301474 54.449506 
L 141.758477 55.445822 
L 142.215479 56.816878 
L 143.129484 60.676257 
L 144.043489 65.980437 
L 144.957494 72.630861 
L 146.328501 84.804874 
L 148.156511 104.123091 
L 155.011548 181.276783 
L 156.839558 198.011642 
L 158.667568 212.440461 
L 160.495577 224.764065 
L 162.323587 235.295302 
L 164.151597 244.351481 
L 165.979607 252.197454 
L 167.807617 259.030088 
L 169.635627 264.987375 
L 171.463636 270.166669 
L 173.291646 274.642172 
L 175.119656 278.477458 
L 176.947666 281.732511 
L 178.775676 284.466635 
L 180.603686 286.738814 
L 182.431695 288.606877 
L 184.259705 290.126276 
L 186.087715 291.348951 
L 187.915725 292.322469 
L 190.200737 293.253485 
L 192.485749 293.933498 
L 195.227764 294.501434 
L 198.426781 294.922761 
L 202.539803 295.223152 
L 208.480835 295.406486 
L 219.905897 295.481591 
L 265.606143 295.440012 
L 271.547174 295.246242 
L 274.746192 294.950799 
L 277.488206 294.465007 
L 279.316216 293.948438 
L 281.144226 293.208976 
L 282.515233 292.462441 
L 283.886241 291.508508 
L 285.257248 290.302208 
L 286.628256 288.792734 
L 287.999263 286.923816 
L 289.37027 284.634508 
L 290.741278 281.860434 
L 292.112285 278.535549 
L 293.483292 274.594459 
L 294.8543 269.975269 
L 296.225307 264.622935 
L 297.596314 258.49302 
L 299.424324 249.061333 
L 301.252334 238.17944 
L 303.080344 225.9057 
L 305.365356 208.839459 
L 308.107371 186.524125 
L 313.5914 141.350141 
L 315.41941 128.081293 
L 316.790418 119.305239 
L 318.161425 111.783692 
L 319.532432 105.71231 
L 320.446437 102.551987 
L 321.360442 100.147262 
L 322.274447 98.527484 
L 322.73145 98.018548 
L 323.188452 97.712558 
L 323.645455 97.610462 
L 324.102457 97.712558 
L 324.559459 98.018548 
L 325.016462 98.527484 
L 325.930467 100.147262 
L 326.844472 102.551987 
L 327.758477 105.71231 
L 328.672482 109.590002 
L 330.043489 116.648401 
L 331.414496 125.029762 
L 333.242506 137.891103 
L 335.527518 155.891957 
L 343.29656 219.289108 
L 345.581572 235.237348 
L 347.409582 246.475943 
L 349.237592 256.271266 
L 351.065602 264.622935 
L 352.436609 269.975269 
L 353.807617 274.594459 
L 355.178624 278.535549 
L 356.549631 281.860434 
L 357.920639 284.634508 
L 359.291646 286.923816 
L 360.662654 288.792734 
L 362.033661 290.302208 
L 363.404668 291.508508 
L 364.775676 292.462441 
L 366.603686 293.418653 
L 368.431695 294.095842 
L 370.716708 294.659255 
L 373.458722 295.058161 
L 377.114742 295.318937 
L 382.598771 295.451156 
L 397.22285 295.487694 
L 449.32113 295.393647 
L 454.348157 295.161697 
L 457.547174 294.823023 
L 460.289189 294.321345 
L 462.574201 293.686368 
L 464.859214 292.79023 
L 466.687224 291.84349 
L 468.515233 290.660669 
L 470.343243 289.218846 
L 472.171253 287.505397 
L 473.999263 285.522158 
L 476.284275 282.69626 
L 479.02629 278.916545 
L 484.967322 270.551181 
L 486.795332 268.370646 
L 488.623342 266.575386 
L 489.994349 265.541514 
L 491.365356 264.812907 
L 492.736364 264.413266 
L 493.650369 264.336552 
L 494.564373 264.413266 
L 495.935381 264.812907 
L 497.306388 265.541514 
L 498.677396 266.575386 
L 500.048403 267.881561 
L 501.876413 269.975929 
L 504.161425 273.004255 
L 512.387469 284.434842 
L 514.672482 287.034433 
L 516.500491 288.816156 
L 518.328501 290.325196 
L 520.156511 291.570949 
L 521.984521 292.574154 
L 523.812531 293.362761 
L 526.097543 294.094721 
L 528.382555 294.602306 
L 531.12457 294.994246 
L 534.78059 295.276571 
L 540.264619 295.436902 
L 552.146683 295.486719 
L 560.372727 295.487939 
L 560.372727 295.487939 
" style="fill:none;stroke:#ff7f0e;stroke-linecap:square;stroke-width:1.5;"/>
   </g>
   <g id="line2d_17">
    <path clip-path="url(#p1229f4adde)" d="M 103.827273 289.662098 
L 105.655283 288.02336 
L 107.483292 286.01107 
L 109.311302 283.566261 
L 111.139312 280.6278 
L 112.967322 277.134333 
L 114.795332 273.026739 
L 116.623342 268.251045 
L 118.451351 262.761761 
L 120.279361 256.525506 
L 122.107371 249.52477 
L 123.935381 241.761636 
L 126.220393 231.026258 
L 128.505405 219.247253 
L 131.24742 203.986897 
L 135.817445 177.031947 
L 139.930467 153.199369 
L 142.215479 141.076965 
L 144.043489 132.333282 
L 145.871499 124.66982 
L 147.242506 119.748816 
L 148.613514 115.617235 
L 149.984521 112.336665 
L 150.898526 110.647397 
L 151.812531 109.3701 
L 152.726536 108.513455 
L 153.640541 108.083283 
L 154.554545 108.082432 
L 155.46855 108.510791 
L 156.382555 109.365253 
L 157.29656 110.639714 
L 158.210565 112.325134 
L 159.12457 114.409601 
L 160.495577 118.25174 
L 161.866585 122.897509 
L 163.237592 128.273892 
L 165.065602 136.431467 
L 167.350614 147.891971 
L 170.549631 165.369769 
L 175.119656 190.291003 
L 176.947666 199.216452 
L 178.775676 207.008529 
L 180.146683 211.891681 
L 181.51769 215.789653 
L 182.431695 217.775452 
L 183.3457 219.230877 
L 184.259705 220.127637 
L 184.716708 220.359513 
L 185.17371 220.444289 
L 185.630713 220.380564 
L 186.087715 220.167549 
L 186.544717 219.805067 
L 187.458722 218.63444 
L 188.372727 216.881374 
L 189.286732 214.570759 
L 190.200737 211.740388 
L 191.571744 206.635454 
L 193.399754 198.594199 
L 198.426781 175.145506 
L 199.797789 170.141619 
L 200.711794 167.49239 
L 201.625799 165.495122 
L 202.539803 164.221672 
L 202.996806 163.874284 
L 203.453808 163.727041 
L 203.910811 163.783904 
L 204.367813 164.047596 
L 204.824816 164.519561 
L 205.281818 165.20002 
L 206.195823 167.180949 
L 207.109828 169.967222 
L 208.023833 173.516997 
L 209.39484 180.14039 
L 210.765848 188.08767 
L 212.593857 200.200504 
L 219.905897 251.054026 
L 221.733907 261.310607 
L 223.104914 267.943039 
L 224.475921 273.645738 
L 225.846929 278.446736 
L 227.217936 282.4066 
L 228.588943 285.607972 
L 229.959951 288.145855 
L 231.330958 290.119298 
L 232.701966 291.624866 
L 234.072973 292.751959 
L 235.44398 293.579901 
L 236.814988 294.176522 
L 238.642998 294.707543 
L 240.92801 295.085135 
L 243.670025 295.290266 
L 247.783047 295.341488 
L 252.353071 295.186299 
L 256.009091 294.872268 
L 259.208108 294.367206 
L 261.49312 293.80487 
L 263.778133 293.006515 
L 265.606143 292.14766 
L 267.434152 291.04466 
L 269.262162 289.647285 
L 271.090172 287.901185 
L 272.918182 285.749552 
L 274.746192 283.135449 
L 276.574201 280.004817 
L 278.402211 276.310124 
L 280.230221 272.014524 
L 282.058231 267.096327 
L 283.886241 261.553523 
L 286.171253 253.782533 
L 288.456265 245.175363 
L 291.655283 232.071685 
L 298.510319 203.36621 
L 300.795332 194.961467 
L 302.623342 189.12108 
L 303.994349 185.381591 
L 305.365356 182.270337 
L 306.736364 179.847114 
L 307.650369 178.637839 
L 308.564373 177.766334 
L 309.478378 177.240306 
L 310.392383 177.064442 
L 311.306388 177.240306 
L 312.220393 177.766334 
L 313.134398 178.637839 
L 314.048403 179.847114 
L 314.962408 181.38354 
L 316.333415 184.271514 
L 317.704423 187.808933 
L 319.07543 191.928711 
L 320.90344 198.195023 
L 323.188452 206.989464 
L 326.387469 220.364002 
L 331.871499 243.367836 
L 334.613514 253.782533 
L 336.898526 261.553523 
L 338.726536 267.096327 
L 340.554545 272.014524 
L 342.382555 276.310124 
L 344.210565 280.004817 
L 346.038575 283.135449 
L 347.866585 285.749553 
L 349.694595 287.901187 
L 351.522604 289.647289 
L 353.350614 291.044668 
L 355.178624 292.147677 
L 357.006634 293.006555 
L 359.291646 293.80498 
L 361.576658 294.367516 
L 364.318673 294.816978 
L 367.974693 295.163083 
L 373.00172 295.377089 
L 381.684767 295.473981 
L 418.701966 295.488 
L 477.19828 295.393076 
L 480.8543 295.148227 
L 483.139312 294.777667 
L 484.967322 294.248182 
L 486.338329 293.641178 
L 487.709337 292.781983 
L 489.080344 291.58791 
L 490.451351 289.958862 
L 491.365356 288.573925 
L 492.279361 286.905222 
L 493.193366 284.911577 
L 494.107371 282.550007 
L 495.478378 278.222019 
L 496.849386 272.82308 
L 498.220393 266.222513 
L 499.5914 258.317713 
L 500.962408 249.049873 
L 502.333415 238.420078 
L 504.161425 222.271556 
L 506.446437 199.553266 
L 511.930467 143.259902 
L 513.301474 131.534362 
L 514.672482 121.793549 
L 515.586486 116.626327 
L 516.500491 112.650276 
L 517.414496 109.950585 
L 517.871499 109.098787 
L 518.328501 108.585831 
L 518.785504 108.414529 
L 519.242506 108.585831 
L 519.699509 109.098787 
L 520.156511 109.950585 
L 520.613514 111.136565 
L 521.527518 114.483481 
L 522.441523 119.067332 
L 523.355528 124.790684 
L 524.726536 135.24661 
L 526.097543 147.522212 
L 528.382555 170.589241 
L 532.95258 217.921622 
L 534.78059 234.584845 
L 536.6086 249.049873 
L 537.979607 258.317713 
L 539.350614 266.222513 
L 540.721622 272.82308 
L 542.092629 278.222019 
L 543.463636 282.550007 
L 544.834644 285.951671 
L 546.205651 288.573925 
L 547.576658 290.557107 
L 548.947666 292.028959 
L 550.318673 293.101154 
L 551.689681 293.867938 
L 553.060688 294.406373 
L 554.888698 294.872825 
L 557.17371 295.196427 
L 560.372727 295.393076 
L 560.372727 295.393076 
" style="fill:none;stroke:#2ca02c;stroke-linecap:square;stroke-width:1.5;"/>
   </g>
   <g id="line2d_18">
    <path clip-path="url(#p1229f4adde)" d="M 103.827273 295.488 
L 158.667568 295.389163 
L 161.866585 295.176519 
L 164.151597 294.831275 
L 165.979607 294.347045 
L 167.350614 293.805565 
L 168.721622 293.061558 
L 170.092629 292.065343 
L 171.463636 290.766079 
L 172.834644 289.116579 
L 174.205651 287.079551 
L 175.576658 284.634802 
L 176.947666 281.786696 
L 178.775676 277.428348 
L 181.51769 270.107072 
L 184.259705 262.847085 
L 185.630713 259.683408 
L 187.00172 257.07452 
L 187.915725 255.723309 
L 188.82973 254.728057 
L 189.743735 254.117266 
L 190.65774 253.908537 
L 191.571744 254.107703 
L 192.485749 254.708532 
L 193.399754 255.693013 
L 194.313759 257.032212 
L 195.684767 259.61972 
L 197.055774 262.756354 
L 199.340786 268.702219 
L 202.539803 277.122059 
L 204.367813 281.342627 
L 205.738821 284.052706 
L 207.109828 286.321434 
L 208.480835 288.135425 
L 209.851843 289.504168 
L 211.22285 290.45237 
L 212.136855 290.866816 
L 213.05086 291.118999 
L 214.421867 291.214154 
L 215.792875 290.994388 
L 217.163882 290.480417 
L 218.534889 289.68383 
L 219.905897 288.606805 
L 221.276904 287.242671 
L 222.647912 285.577036 
L 224.018919 283.58924 
L 225.389926 281.253964 
L 226.760934 278.542894 
L 228.131941 275.426395 
L 229.502948 271.875157 
L 231.330958 266.41711 
L 233.158968 260.083719 
L 234.986978 252.838677 
L 236.814988 244.670047 
L 238.642998 235.596211 
L 240.92801 223.066665 
L 243.670025 206.556598 
L 247.326044 182.94336 
L 251.896069 153.449743 
L 254.181081 139.964151 
L 256.009091 130.307416 
L 257.837101 121.962101 
L 259.208108 116.717176 
L 260.579115 112.444901 
L 261.49312 110.175518 
L 262.407125 108.391 
L 263.32113 107.105847 
L 264.235135 106.330506 
L 264.692138 106.136181 
L 265.14914 106.071352 
L 265.606143 106.136181 
L 266.063145 106.330506 
L 266.97715 107.105835 
L 267.891155 108.391 
L 268.80516 110.175518 
L 269.719165 112.444901 
L 270.63317 115.180873 
L 272.004177 120.111076 
L 273.375184 125.954146 
L 275.203194 134.988701 
L 277.031204 145.196719 
L 279.773219 162.071366 
L 288.913268 220.284394 
L 291.19828 232.872819 
L 293.02629 241.865606 
L 294.8543 249.723184 
L 296.225307 254.763939 
L 297.596314 258.975976 
L 298.510319 261.272082 
L 299.424324 263.11699 
L 300.338329 264.470347 
L 301.252334 265.287764 
L 301.709337 265.480625 
L 302.166339 265.521268 
L 302.623342 265.403286 
L 303.080344 265.120168 
L 303.537346 264.665375 
L 304.451351 263.214788 
L 305.365356 261.000984 
L 306.279361 257.977576 
L 307.193366 254.105347 
L 308.107371 249.355654 
L 309.021376 243.714016 
L 310.392383 233.592204 
L 311.763391 221.580337 
L 313.5914 203.047894 
L 316.333415 171.942305 
L 319.07543 141.355542 
L 320.446437 128.135862 
L 321.817445 117.300275 
L 322.73145 111.723944 
L 323.645455 107.648708 
L 324.102457 106.211528 
L 324.559459 105.18939 
L 325.016462 104.589889 
L 325.473464 104.417686 
L 325.930467 104.674522 
L 326.387469 105.35915 
L 326.844472 106.467353 
L 327.301474 107.992051 
L 328.215479 112.248566 
L 329.129484 118.017792 
L 330.043489 125.150762 
L 331.414496 138.005531 
L 333.242506 158.055964 
L 339.183538 226.412367 
L 341.011548 243.442919 
L 342.382555 254.176083 
L 343.753563 263.094241 
L 345.12457 270.244813 
L 346.038575 274.085776 
L 346.95258 277.238783 
L 347.866585 279.755296 
L 348.78059 281.689021 
L 349.694595 283.093537 
L 350.6086 284.020443 
L 351.522604 284.518015 
L 352.436609 284.630353 
L 353.350614 284.396952 
L 354.264619 283.852655 
L 355.178624 283.027884 
L 356.092629 281.949113 
L 357.463636 279.904603 
L 358.834644 277.407943 
L 360.662654 273.479637 
L 362.490663 268.993747 
L 365.232678 261.553862 
L 370.259705 247.637915 
L 372.087715 243.21481 
L 373.458722 240.345994 
L 374.82973 237.958922 
L 376.200737 236.128288 
L 377.114742 235.246745 
L 378.028747 234.651788 
L 378.942752 234.352112 
L 379.856757 234.352124 
L 380.770762 234.651831 
L 381.684767 235.246837 
L 382.598771 236.128442 
L 383.512776 237.283882 
L 384.883784 239.493338 
L 386.254791 242.211274 
L 388.082801 246.481285 
L 390.367813 252.544433 
L 397.679853 272.594274 
L 399.507862 276.863752 
L 401.335872 280.631925 
L 403.163882 283.868364 
L 404.991892 286.576639 
L 406.819902 288.786708 
L 408.647912 290.546757 
L 410.475921 291.915461 
L 412.303931 292.955318 
L 414.131941 293.727453 
L 416.416953 294.401009 
L 418.701966 294.837173 
L 421.900983 295.186566 
L 426.014005 295.385436 
L 433.326044 295.476199 
L 468.058231 295.488 
L 560.372727 295.488 
L 560.372727 295.488 
" style="fill:none;stroke:#d62728;stroke-linecap:square;stroke-width:1.5;"/>
   </g>
   <g id="line2d_19">
    <path clip-path="url(#p1229f4adde)" d="M 103.827273 295.488 
L 158.667568 295.388513 
L 163.237592 295.143196 
L 165.979607 294.79884 
L 168.264619 294.29761 
L 170.092629 293.681202 
L 171.920639 292.793873 
L 173.291646 291.894739 
L 174.662654 290.743157 
L 176.033661 289.28478 
L 177.404668 287.458753 
L 178.775676 285.198489 
L 180.146683 282.432999 
L 181.51769 279.088847 
L 182.888698 275.092791 
L 184.259705 270.37508 
L 185.630713 264.873404 
L 187.00172 258.537344 
L 188.372727 251.333185 
L 190.200737 240.360064 
L 192.028747 227.871312 
L 194.313759 210.361988 
L 197.055774 187.302907 
L 202.539803 140.490339 
L 204.367813 126.850278 
L 205.738821 117.919359 
L 207.109828 110.373654 
L 208.023833 106.219026 
L 208.937838 102.828282 
L 209.851843 100.245411 
L 210.765848 98.5043 
L 211.22285 97.957025 
L 211.679853 97.627924 
L 212.136855 97.518109 
L 212.593857 97.627924 
L 213.05086 97.957025 
L 213.507862 98.5043 
L 214.421867 100.245411 
L 215.335872 102.828282 
L 216.249877 106.219026 
L 217.163882 110.373654 
L 218.534889 117.919359 
L 219.905897 126.850278 
L 221.733907 140.490339 
L 224.018919 159.439463 
L 230.416953 214.012965 
L 232.701966 231.129445 
L 234.529975 243.248834 
L 236.357985 253.83227 
L 238.185995 262.856149 
L 239.557002 268.631073 
L 240.92801 273.603676 
L 242.299017 277.832815 
L 243.670025 281.386228 
L 245.041032 284.336393 
L 246.412039 286.757011 
L 247.783047 288.720135 
L 249.154054 290.293996 
L 250.525061 291.541472 
L 251.896069 292.519136 
L 253.267076 293.276802 
L 255.095086 294.018183 
L 256.923096 294.528185 
L 259.208108 294.938461 
L 262.407125 295.247735 
L 266.97715 295.420945 
L 276.117199 295.484253 
L 311.306388 295.41909 
L 318.161425 295.202058 
L 322.274447 294.86716 
L 325.473464 294.398622 
L 328.215479 293.773333 
L 330.500491 293.035182 
L 332.785504 292.042453 
L 334.613514 291.024765 
L 336.441523 289.773344 
L 338.269533 288.255657 
L 340.097543 286.440748 
L 341.925553 284.301272 
L 343.753563 281.81581 
L 345.581572 278.971355 
L 347.409582 275.765848 
L 349.694595 271.269825 
L 351.979607 266.284434 
L 355.178624 258.67608 
L 362.947666 239.797201 
L 365.232678 235.05134 
L 367.060688 231.803856 
L 368.431695 229.757858 
L 369.802703 228.088531 
L 371.17371 226.8275 
L 372.087715 226.225933 
L 373.00172 225.82196 
L 373.915725 225.619095 
L 374.82973 225.619095 
L 375.743735 225.82196 
L 376.65774 226.225933 
L 377.571744 226.8275 
L 378.942752 228.088531 
L 380.313759 229.757858 
L 381.684767 231.803856 
L 383.512776 235.05134 
L 385.340786 238.796459 
L 387.625799 244.002239 
L 391.281818 252.992733 
L 395.851843 264.173627 
L 398.593857 270.309392 
L 400.87887 274.909054 
L 403.163882 278.971355 
L 404.991892 281.81581 
L 406.819902 284.301272 
L 408.647912 286.440748 
L 410.475921 288.255657 
L 412.303931 289.773344 
L 414.131941 291.024765 
L 415.959951 292.042453 
L 418.244963 293.035182 
L 420.529975 293.773333 
L 423.27199 294.398622 
L 426.471007 294.86716 
L 430.584029 295.202058 
L 436.068059 295.395196 
L 446.122113 295.479015 
L 502.333415 295.488 
L 560.372727 295.488 
L 560.372727 295.488 
" style="fill:none;stroke:#9467bd;stroke-linecap:square;stroke-width:1.5;"/>
   </g>
   <g id="line2d_20">
    <path clip-path="url(#p1229f4adde)" d="M 103.827273 295.485722 
L 109.768305 295.39075 
L 112.053317 295.152204 
L 113.424324 294.819214 
L 114.795332 294.20943 
L 115.709337 293.562808 
L 116.623342 292.641416 
L 117.537346 291.35492 
L 118.451351 289.595173 
L 119.365356 287.237628 
L 120.279361 284.145119 
L 121.193366 280.174542 
L 122.107371 275.186732 
L 123.021376 269.059467 
L 123.935381 261.703077 
L 125.306388 248.294161 
L 126.677396 232.207095 
L 128.505405 207.692442 
L 131.24742 170.311626 
L 132.618428 154.920527 
L 133.532432 147.036423 
L 134.446437 141.536192 
L 134.90344 139.775917 
L 135.360442 138.710111 
L 135.817445 138.353227 
L 136.274447 138.710111 
L 136.73145 139.775917 
L 137.188452 141.536179 
L 137.645455 143.967171 
L 138.559459 150.703401 
L 139.473464 159.633998 
L 140.844472 176.148283 
L 143.586486 214.039059 
L 145.414496 237.839753 
L 146.785504 253.077385 
L 148.156511 265.538542 
L 149.070516 272.271791 
L 149.984521 277.815615 
L 150.898526 282.278031 
L 151.812531 285.791538 
L 152.726536 288.4987 
L 153.640541 290.540676 
L 154.554545 292.048958 
L 155.46855 293.140194 
L 156.382555 293.913663 
L 157.29656 294.450832 
L 158.667568 294.950866 
L 160.495577 295.275858 
L 163.237592 295.435451 
L 169.178624 295.456769 
L 179.232678 295.289227 
L 184.716708 294.996052 
L 188.82973 294.569141 
L 192.028747 294.042042 
L 195.227764 293.276432 
L 197.969779 292.375979 
L 200.254791 291.416792 
L 202.539803 290.238753 
L 204.824816 288.81742 
L 207.109828 287.133448 
L 209.39484 285.175223 
L 211.679853 282.941544 
L 214.421867 279.915074 
L 217.163882 276.558585 
L 220.819902 271.717846 
L 227.674939 262.531504 
L 230.416953 259.279475 
L 232.701966 256.946269 
L 234.529975 255.393348 
L 236.357985 254.163735 
L 237.728993 253.473888 
L 239.1 252.995264 
L 240.471007 252.735287 
L 241.842015 252.698017 
L 243.213022 252.88404 
L 244.584029 253.290442 
L 245.955037 253.910908 
L 247.326044 254.735866 
L 249.154054 256.13178 
L 250.982064 257.831505 
L 253.267076 260.31603 
L 256.009091 263.697343 
L 260.122113 269.220145 
L 265.606143 276.558585 
L 268.80516 280.444137 
L 271.547174 283.409959 
L 273.832187 285.589037 
L 276.117199 287.491945 
L 278.402211 289.122173 
L 280.687224 290.4931 
L 282.972236 291.625293 
L 285.714251 292.704416 
L 288.456265 293.523579 
L 291.655283 294.214034 
L 295.311302 294.737974 
L 299.424324 295.092692 
L 304.908354 295.331563 
L 313.5914 295.457096 
L 327.758477 295.428271 
L 333.242506 295.222135 
L 336.441523 294.89395 
L 338.726536 294.469164 
L 340.554545 293.952154 
L 342.382555 293.216004 
L 344.210565 292.189807 
L 345.581572 291.179755 
L 346.95258 289.919799 
L 348.323587 288.367355 
L 349.694595 286.478229 
L 351.065602 284.208292 
L 352.436609 281.515575 
L 353.807617 278.362809 
L 355.178624 274.720279 
L 356.549631 270.568923 
L 358.377641 264.235514 
L 360.205651 257.02518 
L 362.490663 246.935554 
L 365.689681 231.465223 
L 369.802703 211.561989 
L 371.630713 203.691136 
L 373.00172 198.515719 
L 374.372727 194.130214 
L 375.743735 190.665066 
L 376.65774 188.919737 
L 377.571744 187.655315 
L 378.485749 186.889482 
L 378.942752 186.697166 
L 379.399754 186.632991 
L 379.856757 186.697166 
L 380.313759 186.889482 
L 381.227764 187.655315 
L 382.141769 188.919737 
L 383.055774 190.665066 
L 383.969779 192.86711 
L 385.340786 196.959235 
L 386.711794 201.887102 
L 388.539803 209.507932 
L 390.824816 220.192454 
L 397.679853 253.11923 
L 399.964865 262.512448 
L 401.792875 269.070698 
L 403.620885 274.720281 
L 404.991892 278.362809 
L 406.362899 281.515577 
L 407.733907 284.208294 
L 409.104914 286.478233 
L 410.475921 288.36736 
L 411.846929 289.919807 
L 413.217936 291.179767 
L 414.588943 292.189824 
L 416.416953 293.216034 
L 418.244963 293.952203 
L 420.072973 294.469245 
L 422.357985 294.894099 
L 425.557002 295.222478 
L 430.127027 295.411948 
L 438.810074 295.48289 
L 463.031204 295.414027 
L 466.687224 295.221236 
L 468.972236 294.926768 
L 470.800246 294.502565 
L 472.171253 294.01274 
L 473.54226 293.314569 
L 474.913268 292.336917 
L 476.284275 290.992161 
L 477.19828 289.840673 
L 478.112285 288.444633 
L 479.02629 286.765862 
L 479.940295 284.763655 
L 481.311302 281.060537 
L 482.68231 276.387448 
L 484.053317 270.602941 
L 485.424324 263.582302 
L 486.795332 255.231628 
L 488.166339 245.503218 
L 489.537346 234.41099 
L 491.365356 217.666531 
L 493.650369 194.279152 
L 498.677396 141.248415 
L 500.048403 128.820354 
L 501.41941 118.255415 
L 502.333415 112.480047 
L 503.24742 107.858288 
L 504.161425 104.485746 
L 504.618428 103.291085 
L 505.07543 102.433194 
L 505.532432 101.916612 
L 505.989435 101.744114 
L 506.446437 101.916612 
L 506.90344 102.433194 
L 507.360442 103.291085 
L 507.817445 104.485746 
L 508.73145 107.858288 
L 509.645455 112.480047 
L 510.559459 118.255415 
L 511.930467 128.820354 
L 513.301474 141.248415 
L 515.129484 159.81598 
L 521.070516 222.044304 
L 522.898526 238.256107 
L 524.269533 248.899674 
L 525.640541 258.167037 
L 527.011548 266.066459 
L 528.382555 272.66279 
L 529.753563 278.06187 
L 531.12457 282.39546 
L 532.495577 285.807814 
L 533.866585 288.444633 
L 535.237592 290.444713 
L 536.6086 291.934275 
L 537.979607 293.023716 
L 539.350614 293.806354 
L 540.721622 294.358685 
L 542.549631 294.840225 
L 544.834644 295.177345 
L 548.033661 295.384967 
L 553.974693 295.477474 
L 560.372727 295.487356 
L 560.372727 295.487356 
" style="fill:none;stroke:#8c564b;stroke-linecap:square;stroke-width:1.5;"/>
   </g>
   <g id="patch_3">
    <path d="M 81 307.584 
L 81 41.472 
" style="fill:none;stroke:#000000;stroke-linecap:square;stroke-linejoin:miter;stroke-width:0.8;"/>
   </g>
   <g id="patch_4">
    <path d="M 583.2 307.584 
L 583.2 41.472 
" style="fill:none;stroke:#000000;stroke-linecap:square;stroke-linejoin:miter;stroke-width:0.8;"/>
   </g>
   <g id="patch_5">
    <path d="M 81 307.584 
L 583.2 307.584 
" style="fill:none;stroke:#000000;stroke-linecap:square;stroke-linejoin:miter;stroke-width:0.8;"/>
   </g>
   <g id="patch_6">
    <path d="M 81 41.472 
L 583.2 41.472 
" style="fill:none;stroke:#000000;stroke-linecap:square;stroke-linejoin:miter;stroke-width:0.8;"/>
   </g>
  </g>
 </g>
 <defs>
  <clipPath id="p1229f4adde">
   <rect height="266.112" width="502.2" x="81" y="41.472"/>
  </clipPath>
 </defs>
</svg>
